<svg xmlns="http://www.w3.org/2000/svg" xmlns:xlink="http://www.w3.org/1999/xlink" width="500" zoomAndPan="magnify" viewBox="0 0 375 374.999991" height="500" preserveAspectRatio="xMidYMid meet" version="1.0"><defs><clipPath id="6024722fa3"><path d="M 25 62 L 67 62 L 67 131 L 25 131 Z M 25 62 " clip-rule="nonzero"/></clipPath><clipPath id="457e81fe33"><path d="M 31.261719 19.59375 L 375.152344 55.433594 L 343.898438 355.308594 L 0.0117188 319.46875 Z M 31.261719 19.59375 " clip-rule="nonzero"/></clipPath><clipPath id="d03dd77dae"><path d="M 31.261719 19.59375 L 375.152344 55.433594 L 343.898438 355.308594 L 0.0117188 319.46875 Z M 31.261719 19.59375 " clip-rule="nonzero"/></clipPath><clipPath id="c1ea5363fe"><path d="M 31.261719 19.59375 L 375.152344 55.433594 L 343.898438 355.308594 L 0.0117188 319.46875 Z M 31.261719 19.59375 " clip-rule="nonzero"/></clipPath><clipPath id="480961ce84"><path d="M 6 119 L 363 119 L 363 355 L 6 355 Z M 6 119 " clip-rule="nonzero"/></clipPath><clipPath id="bdb34165ea"><path d="M 31.261719 19.59375 L 375.152344 55.433594 L 343.898438 355.308594 L 0.0117188 319.46875 Z M 31.261719 19.59375 " clip-rule="nonzero"/></clipPath><clipPath id="c9110292d7"><path d="M 31.261719 19.59375 L 375.152344 55.433594 L 343.898438 355.308594 L 0.0117188 319.46875 Z M 31.261719 19.59375 " clip-rule="nonzero"/></clipPath><clipPath id="597702eca8"><path d="M 31.261719 19.59375 L 375.152344 55.433594 L 343.898438 355.308594 L 0.0117188 319.46875 Z M 31.261719 19.59375 " clip-rule="nonzero"/></clipPath><clipPath id="7cf8202308"><path d="M 23 96 L 367 96 L 367 168 L 23 168 Z M 23 96 " clip-rule="nonzero"/></clipPath><clipPath id="02a8f0191c"><path d="M 31.261719 19.59375 L 375.152344 55.433594 L 343.898438 355.308594 L 0.0117188 319.46875 Z M 31.261719 19.59375 " clip-rule="nonzero"/></clipPath><clipPath id="2bcf48defd"><path d="M 31.261719 19.59375 L 375.152344 55.433594 L 343.898438 355.308594 L 0.0117188 319.46875 Z M 31.261719 19.59375 " clip-rule="nonzero"/></clipPath><clipPath id="2e9e09d17d"><path d="M 31.261719 19.59375 L 375.152344 55.433594 L 343.898438 355.308594 L 0.0117188 319.46875 Z M 31.261719 19.59375 " clip-rule="nonzero"/></clipPath><clipPath id="fac3f08630"><path d="M 59 103 L 113 103 L 113 137 L 59 137 Z M 59 103 " clip-rule="nonzero"/></clipPath><clipPath id="664c02b252"><path d="M 31.261719 19.59375 L 375.152344 55.433594 L 343.898438 355.308594 L 0.0117188 319.46875 Z M 31.261719 19.59375 " clip-rule="nonzero"/></clipPath><clipPath id="d2ee635714"><path d="M 31.261719 19.59375 L 375.152344 55.433594 L 343.898438 355.308594 L 0.0117188 319.46875 Z M 31.261719 19.59375 " clip-rule="nonzero"/></clipPath><clipPath id="f367169027"><path d="M 31.261719 19.59375 L 375.152344 55.433594 L 343.898438 355.308594 L 0.0117188 319.46875 Z M 31.261719 19.59375 " clip-rule="nonzero"/></clipPath><clipPath id="6863fcd0ea"><path d="M 143 112 L 197 112 L 197 146 L 143 146 Z M 143 112 " clip-rule="nonzero"/></clipPath><clipPath id="46eac83269"><path d="M 31.261719 19.59375 L 375.152344 55.433594 L 343.898438 355.308594 L 0.0117188 319.46875 Z M 31.261719 19.59375 " clip-rule="nonzero"/></clipPath><clipPath id="2b40e24c05"><path d="M 31.261719 19.59375 L 375.152344 55.433594 L 343.898438 355.308594 L 0.0117188 319.46875 Z M 31.261719 19.59375 " clip-rule="nonzero"/></clipPath><clipPath id="f1015c4cd6"><path d="M 31.261719 19.59375 L 375.152344 55.433594 L 343.898438 355.308594 L 0.0117188 319.46875 Z M 31.261719 19.59375 " clip-rule="nonzero"/></clipPath><clipPath id="dbcd07ad4e"><path d="M 226 121 L 280 121 L 280 155 L 226 155 Z M 226 121 " clip-rule="nonzero"/></clipPath><clipPath id="c8b5876067"><path d="M 31.261719 19.59375 L 375.152344 55.433594 L 343.898438 355.308594 L 0.0117188 319.46875 Z M 31.261719 19.59375 " clip-rule="nonzero"/></clipPath><clipPath id="564bfe8e14"><path d="M 31.261719 19.59375 L 375.152344 55.433594 L 343.898438 355.308594 L 0.0117188 319.46875 Z M 31.261719 19.59375 " clip-rule="nonzero"/></clipPath><clipPath id="c9101acbcf"><path d="M 31.261719 19.59375 L 375.152344 55.433594 L 343.898438 355.308594 L 0.0117188 319.46875 Z M 31.261719 19.59375 " clip-rule="nonzero"/></clipPath><clipPath id="938eb667a7"><path d="M 309 130 L 363 130 L 363 163 L 309 163 Z M 309 130 " clip-rule="nonzero"/></clipPath><clipPath id="c6f14b5a39"><path d="M 31.261719 19.59375 L 375.152344 55.433594 L 343.898438 355.308594 L 0.0117188 319.46875 Z M 31.261719 19.59375 " clip-rule="nonzero"/></clipPath><clipPath id="e4188fa3c1"><path d="M 31.261719 19.59375 L 375.152344 55.433594 L 343.898438 355.308594 L 0.0117188 319.46875 Z M 31.261719 19.59375 " clip-rule="nonzero"/></clipPath><clipPath id="5cc870d9ba"><path d="M 31.261719 19.59375 L 375.152344 55.433594 L 343.898438 355.308594 L 0.0117188 319.46875 Z M 31.261719 19.59375 " clip-rule="nonzero"/></clipPath><clipPath id="2cbc3f7da6"><path d="M 27 54 L 370 54 L 370 97 L 27 97 Z M 27 54 " clip-rule="nonzero"/></clipPath><clipPath id="59709ca23e"><path d="M 31.261719 19.59375 L 375.152344 55.433594 L 343.898438 355.308594 L 0.0117188 319.46875 Z M 31.261719 19.59375 " clip-rule="nonzero"/></clipPath><clipPath id="91b9538c32"><path d="M 31.261719 19.59375 L 375.152344 55.433594 L 343.898438 355.308594 L 0.0117188 319.46875 Z M 31.261719 19.59375 " clip-rule="nonzero"/></clipPath><clipPath id="dc6afa4f87"><path d="M 31.261719 19.59375 L 375.152344 55.433594 L 343.898438 355.308594 L 0.0117188 319.46875 Z M 31.261719 19.59375 " clip-rule="nonzero"/></clipPath><clipPath id="39ffe8f055"><path d="M 314 57 L 365 57 L 365 89 L 314 89 Z M 314 57 " clip-rule="nonzero"/></clipPath><clipPath id="5fe13db4aa"><path d="M 31.261719 19.59375 L 375.152344 55.433594 L 343.898438 355.308594 L 0.0117188 319.46875 Z M 31.261719 19.59375 " clip-rule="nonzero"/></clipPath><clipPath id="7525e28b96"><path d="M 31.261719 19.59375 L 375.152344 55.433594 L 343.898438 355.308594 L 0.0117188 319.46875 Z M 31.261719 19.59375 " clip-rule="nonzero"/></clipPath><clipPath id="0cb65ec311"><path d="M 31.261719 19.59375 L 375.152344 55.433594 L 343.898438 355.308594 L 0.0117188 319.46875 Z M 31.261719 19.59375 " clip-rule="nonzero"/></clipPath><clipPath id="6d7d5fe0c3"><path d="M 230 58 L 282 58 L 282 91 L 230 91 Z M 230 58 " clip-rule="nonzero"/></clipPath><clipPath id="25979c9128"><path d="M 31.261719 19.59375 L 375.152344 55.433594 L 343.898438 355.308594 L 0.0117188 319.46875 Z M 31.261719 19.59375 " clip-rule="nonzero"/></clipPath><clipPath id="001d8455b2"><path d="M 31.261719 19.59375 L 375.152344 55.433594 L 343.898438 355.308594 L 0.0117188 319.46875 Z M 31.261719 19.59375 " clip-rule="nonzero"/></clipPath><clipPath id="147d24185b"><path d="M 31.261719 19.59375 L 375.152344 55.433594 L 343.898438 355.308594 L 0.0117188 319.46875 Z M 31.261719 19.59375 " clip-rule="nonzero"/></clipPath><clipPath id="384625d293"><path d="M 146 60 L 198 60 L 198 93 L 146 93 Z M 146 60 " clip-rule="nonzero"/></clipPath><clipPath id="6768550fe8"><path d="M 31.261719 19.59375 L 375.152344 55.433594 L 343.898438 355.308594 L 0.0117188 319.46875 Z M 31.261719 19.59375 " clip-rule="nonzero"/></clipPath><clipPath id="982a297534"><path d="M 31.261719 19.59375 L 375.152344 55.433594 L 343.898438 355.308594 L 0.0117188 319.46875 Z M 31.261719 19.59375 " clip-rule="nonzero"/></clipPath><clipPath id="78df1696e7"><path d="M 31.261719 19.59375 L 375.152344 55.433594 L 343.898438 355.308594 L 0.0117188 319.46875 Z M 31.261719 19.59375 " clip-rule="nonzero"/></clipPath><clipPath id="ec69982856"><path d="M 63 61 L 114 61 L 114 94 L 63 94 Z M 63 61 " clip-rule="nonzero"/></clipPath><clipPath id="850f5e021b"><path d="M 31.261719 19.59375 L 375.152344 55.433594 L 343.898438 355.308594 L 0.0117188 319.46875 Z M 31.261719 19.59375 " clip-rule="nonzero"/></clipPath><clipPath id="aade854e2b"><path d="M 31.261719 19.59375 L 375.152344 55.433594 L 343.898438 355.308594 L 0.0117188 319.46875 Z M 31.261719 19.59375 " clip-rule="nonzero"/></clipPath><clipPath id="43033562b3"><path d="M 31.261719 19.59375 L 375.152344 55.433594 L 343.898438 355.308594 L 0.0117188 319.46875 Z M 31.261719 19.59375 " clip-rule="nonzero"/></clipPath><clipPath id="120df50616"><path d="M 40 70 L 55 70 L 55 85 L 40 85 Z M 40 70 " clip-rule="nonzero"/></clipPath><clipPath id="60c1b900b9"><path d="M 31.261719 19.59375 L 375.152344 55.433594 L 343.898438 355.308594 L 0.0117188 319.46875 Z M 31.261719 19.59375 " clip-rule="nonzero"/></clipPath><clipPath id="1a7e54b4e9"><path d="M 31.261719 19.59375 L 375.152344 55.433594 L 343.898438 355.308594 L 0.0117188 319.46875 Z M 31.261719 19.59375 " clip-rule="nonzero"/></clipPath><clipPath id="0f6cc92324"><path d="M 31.261719 19.59375 L 375.152344 55.433594 L 343.898438 355.308594 L 0.0117188 319.46875 Z M 31.261719 19.59375 " clip-rule="nonzero"/></clipPath><clipPath id="2289cf8679"><path d="M 29 59 L 66 59 L 66 97 L 29 97 Z M 29 59 " clip-rule="nonzero"/></clipPath><clipPath id="9748244be6"><path d="M 31.261719 19.59375 L 375.152344 55.433594 L 343.898438 355.308594 L 0.0117188 319.46875 Z M 31.261719 19.59375 " clip-rule="nonzero"/></clipPath><clipPath id="1cbde0320e"><path d="M 31.261719 19.59375 L 375.152344 55.433594 L 343.898438 355.308594 L 0.0117188 319.46875 Z M 31.261719 19.59375 " clip-rule="nonzero"/></clipPath><clipPath id="9e4882370b"><path d="M 31.261719 19.59375 L 375.152344 55.433594 L 343.898438 355.308594 L 0.0117188 319.46875 Z M 31.261719 19.59375 " clip-rule="nonzero"/></clipPath><clipPath id="8acb46d06b"><path d="M 20 128 L 367 128 L 367 170 L 20 170 Z M 20 128 " clip-rule="nonzero"/></clipPath><clipPath id="f75b23d832"><path d="M 31.261719 19.59375 L 375.152344 55.433594 L 343.898438 355.308594 L 0.0117188 319.46875 Z M 31.261719 19.59375 " clip-rule="nonzero"/></clipPath><clipPath id="303946f146"><path d="M 31.261719 19.59375 L 375.152344 55.433594 L 343.898438 355.308594 L 0.0117188 319.46875 Z M 31.261719 19.59375 " clip-rule="nonzero"/></clipPath><clipPath id="3eeafbc549"><path d="M 31.261719 19.59375 L 375.152344 55.433594 L 343.898438 355.308594 L 0.0117188 319.46875 Z M 31.261719 19.59375 " clip-rule="nonzero"/></clipPath><clipPath id="bb87b839ad"><path d="M 13 252 L 346 252 L 346 307 L 13 307 Z M 13 252 " clip-rule="nonzero"/></clipPath><clipPath id="a92f5bce50"><path d="M 31.261719 19.59375 L 375.152344 55.433594 L 343.898438 355.308594 L 0.0117188 319.46875 Z M 31.261719 19.59375 " clip-rule="nonzero"/></clipPath><clipPath id="971d1c470a"><path d="M 31.261719 19.59375 L 375.152344 55.433594 L 343.898438 355.308594 L 0.0117188 319.46875 Z M 31.261719 19.59375 " clip-rule="nonzero"/></clipPath><clipPath id="c37e4d670d"><path d="M 31.261719 19.59375 L 375.152344 55.433594 L 343.898438 355.308594 L 0.0117188 319.46875 Z M 31.261719 19.59375 " clip-rule="nonzero"/></clipPath><clipPath id="f86b1b59ec"><path d="M 100 262 L 128 262 L 128 331 L 100 331 Z M 100 262 " clip-rule="nonzero"/></clipPath><clipPath id="17a62d83f7"><path d="M 31.261719 19.59375 L 375.152344 55.433594 L 343.898438 355.308594 L 0.0117188 319.46875 Z M 31.261719 19.59375 " clip-rule="nonzero"/></clipPath><clipPath id="49fe076add"><path d="M 31.261719 19.59375 L 375.152344 55.433594 L 343.898438 355.308594 L 0.0117188 319.46875 Z M 31.261719 19.59375 " clip-rule="nonzero"/></clipPath><clipPath id="fa114d1757"><path d="M 31.261719 19.59375 L 375.152344 55.433594 L 343.898438 355.308594 L 0.0117188 319.46875 Z M 31.261719 19.59375 " clip-rule="nonzero"/></clipPath><clipPath id="f4827c6ba5"><path d="M 227 275 L 255 275 L 255 345 L 227 345 Z M 227 275 " clip-rule="nonzero"/></clipPath><clipPath id="06c17adbb2"><path d="M 31.261719 19.59375 L 375.152344 55.433594 L 343.898438 355.308594 L 0.0117188 319.46875 Z M 31.261719 19.59375 " clip-rule="nonzero"/></clipPath><clipPath id="4fd0a232bf"><path d="M 31.261719 19.59375 L 375.152344 55.433594 L 343.898438 355.308594 L 0.0117188 319.46875 Z M 31.261719 19.59375 " clip-rule="nonzero"/></clipPath><clipPath id="8efba7ca4f"><path d="M 31.261719 19.59375 L 375.152344 55.433594 L 343.898438 355.308594 L 0.0117188 319.46875 Z M 31.261719 19.59375 " clip-rule="nonzero"/></clipPath><clipPath id="159856ef0b"><path d="M 18 205 L 351 205 L 351 261 L 18 261 Z M 18 205 " clip-rule="nonzero"/></clipPath><clipPath id="6ae008af02"><path d="M 31.261719 19.59375 L 375.152344 55.433594 L 343.898438 355.308594 L 0.0117188 319.46875 Z M 31.261719 19.59375 " clip-rule="nonzero"/></clipPath><clipPath id="15ab3bb41e"><path d="M 31.261719 19.59375 L 375.152344 55.433594 L 343.898438 355.308594 L 0.0117188 319.46875 Z M 31.261719 19.59375 " clip-rule="nonzero"/></clipPath><clipPath id="29f26a3e5a"><path d="M 31.261719 19.59375 L 375.152344 55.433594 L 343.898438 355.308594 L 0.0117188 319.46875 Z M 31.261719 19.59375 " clip-rule="nonzero"/></clipPath><clipPath id="f4176ce719"><path d="M 23 159 L 356 159 L 356 215 L 23 215 Z M 23 159 " clip-rule="nonzero"/></clipPath><clipPath id="6def917dba"><path d="M 31.261719 19.59375 L 375.152344 55.433594 L 343.898438 355.308594 L 0.0117188 319.46875 Z M 31.261719 19.59375 " clip-rule="nonzero"/></clipPath><clipPath id="3a6a236f8d"><path d="M 31.261719 19.59375 L 375.152344 55.433594 L 343.898438 355.308594 L 0.0117188 319.46875 Z M 31.261719 19.59375 " clip-rule="nonzero"/></clipPath><clipPath id="ee3d22ebcb"><path d="M 31.261719 19.59375 L 375.152344 55.433594 L 343.898438 355.308594 L 0.0117188 319.46875 Z M 31.261719 19.59375 " clip-rule="nonzero"/></clipPath></defs><g clip-path="url(#6024722fa3)"><g clip-path="url(#457e81fe33)"><g clip-path="url(#d03dd77dae)"><g clip-path="url(#c1ea5363fe)"><path fill="#000000" d="M 30.640625 69.246094 L 25.386719 119.667969 C 25.335938 120.15625 25.332031 120.640625 25.378906 121.128906 C 25.425781 121.617188 25.519531 122.09375 25.660156 122.5625 C 25.800781 123.03125 25.984375 123.480469 26.214844 123.914062 C 26.445312 124.34375 26.714844 124.75 27.023438 125.132812 C 27.335938 125.511719 27.679688 125.855469 28.058594 126.167969 C 28.4375 126.480469 28.84375 126.753906 29.273438 126.988281 C 29.707031 127.222656 30.160156 127.410156 30.628906 127.554688 C 31.097656 127.699219 31.578125 127.796875 32.070312 127.847656 L 52.652344 129.992188 C 53.140625 130.042969 53.632812 130.046875 54.121094 130.003906 C 54.613281 129.957031 55.09375 129.867188 55.5625 129.726562 C 56.035156 129.589844 56.488281 129.40625 56.925781 129.175781 C 57.359375 128.949219 57.765625 128.683594 58.148438 128.375 C 58.53125 128.066406 58.878906 127.726562 59.191406 127.351562 C 59.507812 126.972656 59.78125 126.570312 60.015625 126.140625 C 60.25 125.710938 60.4375 125.265625 60.585938 124.796875 C 60.730469 124.332031 60.828125 123.855469 60.878906 123.367188 L 66.132812 72.945312 C 66.183594 72.460938 66.1875 71.972656 66.140625 71.484375 C 66.09375 71 66 70.523438 65.859375 70.054688 C 65.71875 69.585938 65.535156 69.132812 65.304688 68.703125 C 65.074219 68.269531 64.804688 67.863281 64.496094 67.484375 C 64.183594 67.105469 63.839844 66.757812 63.460938 66.445312 C 63.082031 66.132812 62.675781 65.859375 62.246094 65.628906 C 61.8125 65.394531 61.359375 65.207031 60.890625 65.058594 C 60.417969 64.914062 59.941406 64.816406 59.449219 64.765625 L 38.867188 62.621094 C 38.375 62.570312 37.886719 62.566406 37.398438 62.613281 C 36.90625 62.65625 36.425781 62.75 35.957031 62.886719 C 35.484375 63.027344 35.03125 63.210938 34.59375 63.4375 C 34.160156 63.664062 33.75 63.933594 33.371094 64.238281 C 32.988281 64.546875 32.640625 64.890625 32.324219 65.265625 C 32.011719 65.640625 31.738281 66.042969 31.503906 66.472656 C 31.269531 66.902344 31.082031 67.351562 30.933594 67.816406 C 30.789062 68.285156 30.691406 68.761719 30.640625 69.246094 " fill-opacity="1" fill-rule="evenodd"/></g></g></g></g><g clip-path="url(#480961ce84)"><g clip-path="url(#bdb34165ea)"><g clip-path="url(#c9110292d7)"><g clip-path="url(#597702eca8)"><path fill="#000000" d="M 33.042969 119.929688 L 356.65625 153.65625 C 357.078125 153.699219 357.488281 153.785156 357.894531 153.910156 C 358.300781 154.035156 358.6875 154.199219 359.0625 154.398438 C 359.433594 154.601562 359.78125 154.835938 360.109375 155.109375 C 360.433594 155.378906 360.730469 155.679688 361 156.007812 C 361.265625 156.335938 361.496094 156.6875 361.695312 157.0625 C 361.894531 157.4375 362.050781 157.828125 362.171875 158.234375 C 362.292969 158.640625 362.375 159.054688 362.414062 159.476562 C 362.453125 159.894531 362.449219 160.316406 362.40625 160.738281 L 342.816406 348.714844 C 342.773438 349.136719 342.6875 349.550781 342.5625 349.953125 C 342.4375 350.359375 342.273438 350.746094 342.070312 351.121094 C 341.871094 351.492188 341.632812 351.839844 341.363281 352.167969 C 341.089844 352.492188 340.792969 352.789062 340.460938 353.054688 C 340.132812 353.324219 339.78125 353.554688 339.40625 353.753906 C 339.03125 353.949219 338.640625 354.109375 338.234375 354.230469 C 337.828125 354.351562 337.414062 354.429688 336.992188 354.46875 C 336.570312 354.507812 336.148438 354.503906 335.726562 354.460938 L 12.113281 320.734375 C 11.691406 320.691406 11.28125 320.605469 10.875 320.480469 C 10.46875 320.355469 10.082031 320.191406 9.707031 319.992188 C 9.335938 319.789062 8.984375 319.554688 8.660156 319.28125 C 8.332031 319.011719 8.039062 318.710938 7.769531 318.382812 C 7.503906 318.054688 7.269531 317.703125 7.074219 317.328125 C 6.875 316.953125 6.714844 316.5625 6.59375 316.15625 C 6.476562 315.75 6.394531 315.339844 6.355469 314.917969 C 6.316406 314.496094 6.320312 314.074219 6.363281 313.652344 L 25.953125 125.675781 C 25.996094 125.253906 26.082031 124.839844 26.207031 124.4375 C 26.332031 124.03125 26.496094 123.644531 26.699219 123.269531 C 26.898438 122.898438 27.136719 122.550781 27.40625 122.222656 C 27.675781 121.898438 27.976562 121.601562 28.304688 121.335938 C 28.636719 121.070312 28.988281 120.835938 29.363281 120.640625 C 29.738281 120.441406 30.128906 120.28125 30.535156 120.160156 C 30.941406 120.042969 31.355469 119.960938 31.777344 119.921875 C 32.199219 119.882812 32.621094 119.886719 33.042969 119.929688 " fill-opacity="1" fill-rule="evenodd"/></g></g></g></g><g clip-path="url(#7cf8202308)"><g clip-path="url(#02a8f0191c)"><g clip-path="url(#2bcf48defd)"><g clip-path="url(#2e9e09d17d)"><path fill="#000000" d="M 27.402344 96.488281 L 366.996094 131.878906 L 363.320312 167.125 L 23.730469 131.734375 Z M 27.402344 96.488281 " fill-opacity="1" fill-rule="evenodd"/></g></g></g></g><g clip-path="url(#fac3f08630)"><g clip-path="url(#664c02b252)"><g clip-path="url(#d2ee635714)"><g clip-path="url(#f367169027)"><path fill="#ffffff" d="M 59.953125 133.515625 L 92.445312 136.902344 L 112.808594 107.378906 L 80.320312 103.992188 Z M 59.953125 133.515625 " fill-opacity="1" fill-rule="evenodd"/></g></g></g></g><g clip-path="url(#6863fcd0ea)"><g clip-path="url(#46eac83269)"><g clip-path="url(#2b40e24c05)"><g clip-path="url(#f1015c4cd6)"><path fill="#ffffff" d="M 143.15625 142.1875 L 175.648438 145.574219 L 196.011719 116.050781 L 163.519531 112.664062 Z M 143.15625 142.1875 " fill-opacity="1" fill-rule="evenodd"/></g></g></g></g><g clip-path="url(#dbcd07ad4e)"><g clip-path="url(#c8b5876067)"><g clip-path="url(#564bfe8e14)"><g clip-path="url(#c9101acbcf)"><path fill="#ffffff" d="M 226.355469 150.859375 L 258.847656 154.246094 L 279.210938 124.722656 L 246.71875 121.335938 Z M 226.355469 150.859375 " fill-opacity="1" fill-rule="evenodd"/></g></g></g></g><g clip-path="url(#938eb667a7)"><g clip-path="url(#c6f14b5a39)"><g clip-path="url(#e4188fa3c1)"><g clip-path="url(#5cc870d9ba)"><path fill="#ffffff" d="M 309.558594 159.53125 L 342.046875 162.917969 L 362.414062 133.390625 L 329.921875 130.003906 Z M 309.558594 159.53125 " fill-opacity="1" fill-rule="evenodd"/></g></g></g></g><g clip-path="url(#2cbc3f7da6)"><g clip-path="url(#59709ca23e)"><g clip-path="url(#91b9538c32)"><g clip-path="url(#dc6afa4f87)"><path fill="#000000" d="M 368.402344 54.734375 L 27.066406 61.261719 L 27.804688 96.695312 L 369.140625 90.167969 Z M 368.402344 54.734375 " fill-opacity="1" fill-rule="evenodd"/></g></g></g></g><g clip-path="url(#39ffe8f055)"><g clip-path="url(#5fe13db4aa)"><g clip-path="url(#7525e28b96)"><g clip-path="url(#0cb65ec311)"><path fill="#ffffff" d="M 364.753906 88.269531 L 332.09375 88.894531 L 314.253906 57.75 L 346.910156 57.125 Z M 364.753906 88.269531 " fill-opacity="1" fill-rule="evenodd"/></g></g></g></g><g clip-path="url(#6d7d5fe0c3)"><g clip-path="url(#25979c9128)"><g clip-path="url(#001d8455b2)"><g clip-path="url(#147d24185b)"><path fill="#ffffff" d="M 281.125 89.867188 L 248.46875 90.492188 L 230.625 59.347656 L 263.285156 58.722656 Z M 281.125 89.867188 " fill-opacity="1" fill-rule="evenodd"/></g></g></g></g><g clip-path="url(#384625d293)"><g clip-path="url(#6768550fe8)"><g clip-path="url(#982a297534)"><g clip-path="url(#78df1696e7)"><path fill="#ffffff" d="M 197.5 91.464844 L 164.839844 92.089844 L 146.996094 60.945312 L 179.65625 60.320312 Z M 197.5 91.464844 " fill-opacity="1" fill-rule="evenodd"/></g></g></g></g><g clip-path="url(#ec69982856)"><g clip-path="url(#850f5e021b)"><g clip-path="url(#aade854e2b)"><g clip-path="url(#43033562b3)"><path fill="#ffffff" d="M 113.871094 93.066406 L 81.214844 93.691406 L 63.371094 62.546875 L 96.027344 61.921875 Z M 113.871094 93.066406 " fill-opacity="1" fill-rule="evenodd"/></g></g></g></g><g clip-path="url(#120df50616)"><g clip-path="url(#60c1b900b9)"><g clip-path="url(#1a7e54b4e9)"><g clip-path="url(#0f6cc92324)"><path fill="#ffffff" d="M 54.648438 77.570312 C 54.660156 78.039062 54.628906 78.503906 54.550781 78.964844 C 54.46875 79.425781 54.347656 79.875 54.179688 80.3125 C 54.007812 80.75 53.800781 81.164062 53.546875 81.558594 C 53.296875 81.953125 53.007812 82.320312 52.683594 82.660156 C 52.359375 83 52.003906 83.300781 51.617188 83.570312 C 51.234375 83.839844 50.824219 84.066406 50.394531 84.257812 C 49.960938 84.445312 49.515625 84.589844 49.058594 84.691406 C 48.597656 84.789062 48.132812 84.84375 47.660156 84.855469 C 47.191406 84.863281 46.722656 84.824219 46.257812 84.742188 C 45.796875 84.660156 45.34375 84.53125 44.90625 84.359375 C 44.46875 84.191406 44.050781 83.976562 43.652344 83.722656 C 43.257812 83.46875 42.890625 83.179688 42.550781 82.855469 C 42.214844 82.527344 41.910156 82.171875 41.640625 81.789062 C 41.375 81.402344 41.148438 80.996094 40.960938 80.5625 C 40.773438 80.132812 40.632812 79.691406 40.535156 79.234375 C 40.4375 78.773438 40.382812 78.3125 40.378906 77.84375 C 40.363281 77.375 40.398438 76.910156 40.476562 76.449219 C 40.554688 75.988281 40.679688 75.539062 40.847656 75.105469 C 41.015625 74.667969 41.226562 74.25 41.476562 73.855469 C 41.730469 73.460938 42.015625 73.09375 42.339844 72.753906 C 42.667969 72.417969 43.019531 72.113281 43.40625 71.84375 C 43.792969 71.574219 44.199219 71.347656 44.632812 71.160156 C 45.0625 70.972656 45.507812 70.828125 45.96875 70.726562 C 46.425781 70.625 46.894531 70.570312 47.363281 70.5625 C 47.835938 70.550781 48.300781 70.589844 48.765625 70.671875 C 49.230469 70.753906 49.679688 70.882812 50.121094 71.054688 C 50.558594 71.226562 50.976562 71.4375 51.371094 71.691406 C 51.765625 71.945312 52.136719 72.234375 52.472656 72.5625 C 52.8125 72.886719 53.113281 73.242188 53.382812 73.628906 C 53.652344 74.011719 53.878906 74.421875 54.0625 74.851562 C 54.25 75.28125 54.394531 75.726562 54.492188 76.183594 C 54.589844 76.640625 54.640625 77.101562 54.648438 77.570312 Z M 54.648438 77.570312 " fill-opacity="1" fill-rule="evenodd"/></g></g></g></g><g clip-path="url(#2289cf8679)"><g clip-path="url(#9748244be6)"><g clip-path="url(#1cbde0320e)"><g clip-path="url(#9e4882370b)"><path stroke-linecap="butt" transform="matrix(0.499417, -0.0095485, 0.0103215, 0.496079, -9.869673, -4.609335)" fill="none" stroke-linejoin="miter" d="M 125.713222 168.077983 C 125.717157 169.022968 125.635251 169.958426 125.459685 170.884208 C 125.276301 171.809839 125.015219 172.710352 124.660804 173.585445 C 124.29857 174.460388 123.866945 175.28675 123.342312 176.071951 C 122.825497 176.857302 122.231636 177.58605 121.568546 178.258346 C 120.905457 178.930643 120.181446 179.523024 119.396189 180.051232 C 118.61875 180.579591 117.788371 181.020314 116.920364 181.389444 C 116.044701 181.750553 115.147371 182.024629 114.228376 182.21167 C 113.301724 182.39069 112.369044 182.482978 111.422515 182.488382 C 110.483968 182.486065 109.547373 182.389295 108.620387 182.206093 C 107.701218 182.023042 106.799639 181.745839 105.931123 181.382655 C 105.062444 181.027342 104.23481 180.578328 103.447896 180.051356 C 102.6688 179.524534 101.945897 178.927926 101.279188 178.261531 C 100.620461 177.587415 100.02542 176.859406 99.501885 176.077653 C 98.98633 175.288179 98.549775 174.460855 98.192543 173.579938 C 97.835148 172.706892 97.572064 171.812039 97.395634 170.887356 C 97.219366 169.954803 97.129103 169.023904 97.140805 168.07922 C 97.129052 167.134085 97.218776 166.198777 97.394342 165.272995 C 97.569908 164.347214 97.838808 163.446852 98.193061 162.579629 C 98.547476 161.704536 98.987082 160.870453 99.503897 160.085102 C 100.02853 159.299901 100.614573 158.571002 101.277662 157.898706 C 101.948407 157.234432 102.664762 156.634029 103.450019 156.105821 C 104.235277 155.577613 105.057837 155.136739 105.9335 154.77563 C 106.801345 154.41437 107.698675 154.140295 108.625489 153.953404 C 109.544484 153.766362 110.484983 153.674226 111.42353 153.676542 C 112.370059 153.671138 113.298835 153.767758 114.225822 153.950959 C 115.152809 154.134161 116.04657 154.411214 116.922904 154.774549 C 117.79142 155.137732 118.619217 155.578875 119.398313 156.105697 C 120.177409 156.632519 120.90813 157.229278 121.566857 157.903393 C 122.233566 158.569788 122.820788 159.297647 123.344161 160.087271 C 123.867697 160.869024 124.30409 161.704219 124.653666 162.577115 C 125.01106 163.450161 125.281801 164.353036 125.458231 165.277718 C 125.634661 166.202401 125.717106 167.133148 125.713222 168.077983 Z M 125.713222 168.077983 " stroke="#ffffff" stroke-width="4" stroke-opacity="1" stroke-miterlimit="4"/></g></g></g></g><g clip-path="url(#8acb46d06b)"><g clip-path="url(#f75b23d832)"><g clip-path="url(#303946f146)"><g clip-path="url(#3eeafbc549)"><path stroke-linecap="butt" transform="matrix(0.71626, 0.0746462, -0.0745872, 0.715694, -42.318516, -192.757384)" fill="none" stroke-linejoin="miter" d="M 137.848805 439.071484 L 612.050842 439.067488 " stroke="#cccccc" stroke-width="0.692" stroke-opacity="1" stroke-miterlimit="4"/></g></g></g></g><g clip-path="url(#bb87b839ad)"><g clip-path="url(#a92f5bce50)"><g clip-path="url(#971d1c470a)"><g clip-path="url(#c37e4d670d)"><path stroke-linecap="butt" transform="matrix(0.49687, 0.0517821, -0.0514272, 0.493464, 5.36454, -47.138721)" fill="none" stroke-linejoin="miter" d="M 104.116579 618.351228 L 726.701662 618.350259 " stroke="#ffffff" stroke-width="4" stroke-opacity="1" stroke-miterlimit="4"/></g></g></g></g><g clip-path="url(#f86b1b59ec)"><g clip-path="url(#17a62d83f7)"><g clip-path="url(#49fe076add)"><g clip-path="url(#fa114d1757)"><path stroke-linecap="butt" transform="matrix(0.49687, 0.0517821, -0.0514272, 0.493464, -4.961783, -48.214898)" fill="none" stroke-linejoin="miter" d="M 307.959655 713.147543 L 307.957479 619.319686 " stroke="#ffffff" stroke-width="4" stroke-opacity="1" stroke-miterlimit="4"/></g></g></g></g><g clip-path="url(#f4827c6ba5)"><g clip-path="url(#06c17adbb2)"><g clip-path="url(#4fd0a232bf)"><g clip-path="url(#8efba7ca4f)"><path stroke-linecap="butt" transform="matrix(0.49687, 0.0517821, -0.0514272, 0.493464, -4.961783, -48.214898)" fill="none" stroke-linejoin="miter" d="M 564.4326 713.148645 L 564.430424 619.320788 " stroke="#ffffff" stroke-width="4" stroke-opacity="1" stroke-miterlimit="4"/></g></g></g></g><g clip-path="url(#159856ef0b)"><g clip-path="url(#6ae008af02)"><g clip-path="url(#15ab3bb41e)"><g clip-path="url(#29f26a3e5a)"><path stroke-linecap="butt" transform="matrix(0.49687, 0.0517821, -0.0514272, 0.493464, 5.36454, -47.138721)" fill="none" stroke-linejoin="miter" d="M 104.118939 524.491232 L 726.696244 524.491079 " stroke="#ffffff" stroke-width="4" stroke-opacity="1" stroke-miterlimit="4"/></g></g></g></g><g clip-path="url(#f4176ce719)"><g clip-path="url(#6def917dba)"><g clip-path="url(#3a6a236f8d)"><g clip-path="url(#ee3d22ebcb)"><path stroke-linecap="butt" transform="matrix(0.49687, 0.0517821, -0.0514272, 0.493464, 5.36454, -47.138721)" fill="none" stroke-linejoin="miter" d="M 104.121298 430.631235 L 726.698603 430.631082 " stroke="#ffffff" stroke-width="4" stroke-opacity="1" stroke-miterlimit="4"/></g></g></g></g></svg>