<svg width="300" height="50" viewBox="0 0 300 50" fill="none" xmlns="http://www.w3.org/2000/svg">
<mask id="mask0_425_2" style="mask-type:luminance" maskUnits="userSpaceOnUse" x="6" y="6" width="8" height="12">
<path d="M6.74658 6.66669H13.4132V17.3334H6.74658V6.66669Z" fill="white"/>
</mask>
<g mask="url(#mask0_425_2)">
<mask id="mask1_425_2" style="mask-type:luminance" maskUnits="userSpaceOnUse" x="3" y="2" width="52" height="47">
<path d="M7.68921 2.07294L54.8038 6.98439L50.5069 48.2084L3.39233 43.2969L7.68921 2.07294Z" fill="white"/>
</mask>
<g mask="url(#mask1_425_2)">
<mask id="mask2_425_2" style="mask-type:luminance" maskUnits="userSpaceOnUse" x="3" y="2" width="52" height="47">
<path d="M7.68921 2.07294L54.8038 6.98439L50.5069 48.2084L3.39233 43.2969L7.68921 2.07294Z" fill="white"/>
</mask>
<g mask="url(#mask2_425_2)">
<mask id="mask3_425_2" style="mask-type:luminance" maskUnits="userSpaceOnUse" x="3" y="2" width="52" height="47">
<path d="M7.68921 2.07294L54.8038 6.98439L50.5069 48.2084L3.39233 43.2969L7.68921 2.07294Z" fill="white"/>
</mask>
<g mask="url(#mask3_425_2)">
<path fill-rule="evenodd" clip-rule="evenodd" d="M7.60067 8.90103L6.87671 15.8333C6.85067 16.1094 6.92358 16.3646 7.10067 16.5833C7.28296 16.8021 7.51213 16.9271 7.79338 16.9531L10.6163 17.25C10.8975 17.276 11.1475 17.2031 11.3663 17.026C11.585 16.849 11.71 16.6198 11.7413 16.3385L12.4653 9.40624C12.4913 9.12499 12.4184 8.87499 12.2413 8.65624C12.059 8.43749 11.8298 8.31249 11.5486 8.28124L8.72567 7.98958C8.44442 7.95832 8.19442 8.03124 7.97567 8.20832C7.75692 8.39062 7.63192 8.61978 7.60067 8.90103Z" fill="black"/>
</g>
</g>
</g>
</g>
<mask id="mask4_425_2" style="mask-type:luminance" maskUnits="userSpaceOnUse" x="4" y="14" width="50" height="36">
<path d="M4.08008 14.6667H53.4134V49.3334H4.08008V14.6667Z" fill="white"/>
</mask>
<g mask="url(#mask4_425_2)">
<mask id="mask5_425_2" style="mask-type:luminance" maskUnits="userSpaceOnUse" x="3" y="2" width="52" height="47">
<path d="M7.68945 2.07294L54.804 6.98439L50.5072 48.2084L3.39258 43.2969L7.68945 2.07294Z" fill="white"/>
</mask>
<g mask="url(#mask5_425_2)">
<mask id="mask6_425_2" style="mask-type:luminance" maskUnits="userSpaceOnUse" x="3" y="2" width="52" height="47">
<path d="M7.68945 2.07294L54.804 6.98439L50.5072 48.2084L3.39258 43.2969L7.68945 2.07294Z" fill="white"/>
</mask>
<g mask="url(#mask6_425_2)">
<mask id="mask7_425_2" style="mask-type:luminance" maskUnits="userSpaceOnUse" x="3" y="2" width="52" height="47">
<path d="M7.68945 2.07294L54.804 6.98439L50.5072 48.2084L3.39258 43.2969L7.68945 2.07294Z" fill="white"/>
</mask>
<g mask="url(#mask7_425_2)">
<path fill-rule="evenodd" clip-rule="evenodd" d="M7.92896 15.8646L52.2675 20.4844C52.5071 20.5104 52.705 20.6198 52.8612 20.8125C53.0123 21 53.08 21.2187 53.054 21.4583L50.3612 47.3021C50.3352 47.5469 50.2258 47.7448 50.0383 47.901C49.8456 48.0521 49.6321 48.1198 49.3873 48.0938L5.04875 43.4688C4.80916 43.4479 4.61125 43.3385 4.455 43.1458C4.30396 42.9583 4.23625 42.7396 4.26229 42.5L6.955 16.6563C6.98104 16.4115 7.09041 16.2135 7.27791 16.0573C7.47062 15.9063 7.68416 15.8385 7.92896 15.8646Z" fill="black"/>
</g>
</g>
</g>
</g>
<mask id="mask8_425_2" style="mask-type:luminance" maskUnits="userSpaceOnUse" x="5" y="12" width="50" height="11">
<path d="M5.41333 12H54.7467V22.6667H5.41333V12Z" fill="white"/>
</mask>
<g mask="url(#mask8_425_2)">
<mask id="mask9_425_2" style="mask-type:luminance" maskUnits="userSpaceOnUse" x="3" y="2" width="52" height="47">
<path d="M7.68945 2.07294L54.804 6.98439L50.5072 48.2084L3.39258 43.2969L7.68945 2.07294Z" fill="white"/>
</mask>
<g mask="url(#mask9_425_2)">
<mask id="mask10_425_2" style="mask-type:luminance" maskUnits="userSpaceOnUse" x="3" y="2" width="52" height="47">
<path d="M7.68945 2.07294L54.804 6.98439L50.5072 48.2084L3.39258 43.2969L7.68945 2.07294Z" fill="white"/>
</mask>
<g mask="url(#mask10_425_2)">
<mask id="mask11_425_2" style="mask-type:luminance" maskUnits="userSpaceOnUse" x="3" y="2" width="52" height="47">
<path d="M7.68945 2.07294L54.804 6.98439L50.5072 48.2084L3.39258 43.2969L7.68945 2.07294Z" fill="white"/>
</mask>
<g mask="url(#mask11_425_2)">
<path fill-rule="evenodd" clip-rule="evenodd" d="M7.15828 12.6459L53.6843 17.4948L53.1791 22.3386L6.65308 17.4896L7.15828 12.6459Z" fill="black"/>
</g>
</g>
</g>
</g>
<mask id="mask12_425_2" style="mask-type:luminance" maskUnits="userSpaceOnUse" x="10" y="13" width="11" height="6">
<path d="M10.7466 13.3333H20.0799V18.6666H10.7466V13.3333Z" fill="white"/>
</mask>
<g mask="url(#mask12_425_2)">
<mask id="mask13_425_2" style="mask-type:luminance" maskUnits="userSpaceOnUse" x="3" y="2" width="52" height="47">
<path d="M7.68921 2.07288L54.8038 6.98433L50.5069 48.2083L3.39233 43.2968L7.68921 2.07288Z" fill="white"/>
</mask>
<g mask="url(#mask13_425_2)">
<mask id="mask14_425_2" style="mask-type:luminance" maskUnits="userSpaceOnUse" x="3" y="2" width="52" height="47">
<path d="M7.68921 2.07288L54.8038 6.98433L50.5069 48.2083L3.39233 43.2968L7.68921 2.07288Z" fill="white"/>
</mask>
<g mask="url(#mask14_425_2)">
<mask id="mask15_425_2" style="mask-type:luminance" maskUnits="userSpaceOnUse" x="3" y="2" width="52" height="47">
<path d="M7.68921 2.07288L54.8038 6.98433L50.5069 48.2083L3.39233 43.2968L7.68921 2.07288Z" fill="white"/>
</mask>
<g mask="url(#mask15_425_2)">
<path fill-rule="evenodd" clip-rule="evenodd" d="M11.6162 17.7343L16.0641 18.1979L18.8558 14.1354L14.4079 13.6718L11.6162 17.7343Z" fill="white"/>
</g>
</g>
</g>
</g>
<mask id="mask16_425_2" style="mask-type:luminance" maskUnits="userSpaceOnUse" x="22" y="14" width="9" height="6">
<path d="M22.7466 14.6667H30.7466V20H22.7466V14.6667Z" fill="white"/>
</mask>
<g mask="url(#mask16_425_2)">
<mask id="mask17_425_2" style="mask-type:luminance" maskUnits="userSpaceOnUse" x="3" y="2" width="52" height="47">
<path d="M7.68921 2.07294L54.8038 6.98439L50.5069 48.2084L3.39233 43.2969L7.68921 2.07294Z" fill="white"/>
</mask>
<g mask="url(#mask17_425_2)">
<mask id="mask18_425_2" style="mask-type:luminance" maskUnits="userSpaceOnUse" x="3" y="2" width="52" height="47">
<path d="M7.68921 2.07294L54.8038 6.98439L50.5069 48.2084L3.39233 43.2969L7.68921 2.07294Z" fill="white"/>
</mask>
<g mask="url(#mask18_425_2)">
<mask id="mask19_425_2" style="mask-type:luminance" maskUnits="userSpaceOnUse" x="3" y="2" width="52" height="47">
<path d="M7.68921 2.07294L54.8038 6.98439L50.5069 48.2084L3.39233 43.2969L7.68921 2.07294Z" fill="white"/>
</mask>
<g mask="url(#mask19_425_2)">
<path fill-rule="evenodd" clip-rule="evenodd" d="M23.0122 18.9219L27.4653 19.3854L30.257 15.3229L25.8039 14.8594L23.0122 18.9219Z" fill="white"/>
</g>
</g>
</g>
</g>
<mask id="mask20_425_2" style="mask-type:luminance" maskUnits="userSpaceOnUse" x="33" y="16" width="10" height="6">
<path d="M33.4133 16H42.7467V21.3333H33.4133V16Z" fill="white"/>
</mask>
<g mask="url(#mask20_425_2)">
<mask id="mask21_425_2" style="mask-type:luminance" maskUnits="userSpaceOnUse" x="3" y="2" width="52" height="47">
<path d="M7.68945 2.07294L54.804 6.98439L50.5072 48.2084L3.39258 43.2969L7.68945 2.07294Z" fill="white"/>
</mask>
<g mask="url(#mask21_425_2)">
<mask id="mask22_425_2" style="mask-type:luminance" maskUnits="userSpaceOnUse" x="3" y="2" width="52" height="47">
<path d="M7.68945 2.07294L54.804 6.98439L50.5072 48.2084L3.39258 43.2969L7.68945 2.07294Z" fill="white"/>
</mask>
<g mask="url(#mask22_425_2)">
<mask id="mask23_425_2" style="mask-type:luminance" maskUnits="userSpaceOnUse" x="3" y="2" width="52" height="47">
<path d="M7.68945 2.07294L54.804 6.98439L50.5072 48.2084L3.39258 43.2969L7.68945 2.07294Z" fill="white"/>
</mask>
<g mask="url(#mask23_425_2)">
<path fill-rule="evenodd" clip-rule="evenodd" d="M34.4133 20.1094L38.8665 20.5729L41.6581 16.5156L37.205 16.0469L34.4133 20.1094Z" fill="white"/>
</g>
</g>
</g>
</g>
<mask id="mask24_425_2" style="mask-type:luminance" maskUnits="userSpaceOnUse" x="45" y="16" width="9" height="7">
<path d="M45.4133 16H53.4133V22.6667H45.4133V16Z" fill="white"/>
</mask>
<g mask="url(#mask24_425_2)">
<mask id="mask25_425_2" style="mask-type:luminance" maskUnits="userSpaceOnUse" x="3" y="2" width="52" height="47">
<path d="M7.68945 2.07294L54.804 6.98439L50.5072 48.2084L3.39258 43.2969L7.68945 2.07294Z" fill="white"/>
</mask>
<g mask="url(#mask25_425_2)">
<mask id="mask26_425_2" style="mask-type:luminance" maskUnits="userSpaceOnUse" x="3" y="2" width="52" height="47">
<path d="M7.68945 2.07294L54.804 6.98439L50.5072 48.2084L3.39258 43.2969L7.68945 2.07294Z" fill="white"/>
</mask>
<g mask="url(#mask26_425_2)">
<mask id="mask27_425_2" style="mask-type:luminance" maskUnits="userSpaceOnUse" x="3" y="2" width="52" height="47">
<path d="M7.68945 2.07294L54.804 6.98439L50.5072 48.2084L3.39258 43.2969L7.68945 2.07294Z" fill="white"/>
</mask>
<g mask="url(#mask27_425_2)">
<path fill-rule="evenodd" clip-rule="evenodd" d="M45.8145 21.2969L50.2624 21.7605L53.054 17.7032L48.6061 17.2396L45.8145 21.2969Z" fill="white"/>
</g>
</g>
</g>
</g>
<mask id="mask28_425_2" style="mask-type:luminance" maskUnits="userSpaceOnUse" x="6" y="6" width="49" height="8">
<path d="M6.74658 6.66669H54.7466V13.3334H6.74658V6.66669Z" fill="white"/>
</mask>
<g mask="url(#mask28_425_2)">
<mask id="mask29_425_2" style="mask-type:luminance" maskUnits="userSpaceOnUse" x="3" y="2" width="52" height="47">
<path d="M7.68921 2.07294L54.8038 6.98439L50.5069 48.2084L3.39233 43.2969L7.68921 2.07294Z" fill="white"/>
</mask>
<g mask="url(#mask29_425_2)">
<mask id="mask30_425_2" style="mask-type:luminance" maskUnits="userSpaceOnUse" x="3" y="2" width="52" height="47">
<path d="M7.68921 2.07294L54.8038 6.98439L50.5069 48.2084L3.39233 43.2969L7.68921 2.07294Z" fill="white"/>
</mask>
<g mask="url(#mask30_425_2)">
<mask id="mask31_425_2" style="mask-type:luminance" maskUnits="userSpaceOnUse" x="3" y="2" width="52" height="47">
<path d="M7.68921 2.07294L54.8038 6.98439L50.5069 48.2084L3.39233 43.2969L7.68921 2.07294Z" fill="white"/>
</mask>
<g mask="url(#mask31_425_2)">
<path fill-rule="evenodd" clip-rule="evenodd" d="M53.8819 6.88544L7.11108 7.8021L7.21004 12.6719L53.9809 11.7604L53.8819 6.88544Z" fill="black"/>
</g>
</g>
</g>
</g>
<mask id="mask32_425_2" style="mask-type:luminance" maskUnits="userSpaceOnUse" x="45" y="6" width="9" height="6">
<path d="M45.4133 6.66669H53.4133V12H45.4133V6.66669Z" fill="white"/>
</mask>
<g mask="url(#mask32_425_2)">
<mask id="mask33_425_2" style="mask-type:luminance" maskUnits="userSpaceOnUse" x="3" y="2" width="52" height="47">
<path d="M7.68945 2.07294L54.804 6.98439L50.5072 48.2084L3.39258 43.2969L7.68945 2.07294Z" fill="white"/>
</mask>
<g mask="url(#mask33_425_2)">
<mask id="mask34_425_2" style="mask-type:luminance" maskUnits="userSpaceOnUse" x="3" y="2" width="52" height="47">
<path d="M7.68945 2.07294L54.804 6.98439L50.5072 48.2084L3.39258 43.2969L7.68945 2.07294Z" fill="white"/>
</mask>
<g mask="url(#mask34_425_2)">
<mask id="mask35_425_2" style="mask-type:luminance" maskUnits="userSpaceOnUse" x="3" y="2" width="52" height="47">
<path d="M7.68945 2.07294L54.804 6.98439L50.5072 48.2084L3.39258 43.2969L7.68945 2.07294Z" fill="white"/>
</mask>
<g mask="url(#mask35_425_2)">
<path fill-rule="evenodd" clip-rule="evenodd" d="M53.3769 11.5L48.9029 11.5833L46.4602 7.30729L50.9342 7.21875L53.3769 11.5Z" fill="white"/>
</g>
</g>
</g>
</g>
<mask id="mask36_425_2" style="mask-type:luminance" maskUnits="userSpaceOnUse" x="34" y="6" width="9" height="6">
<path d="M34.7466 6.66669H42.7466V12H34.7466V6.66669Z" fill="white"/>
</mask>
<g mask="url(#mask36_425_2)">
<mask id="mask37_425_2" style="mask-type:luminance" maskUnits="userSpaceOnUse" x="3" y="2" width="52" height="47">
<path d="M7.68921 2.07294L54.8038 6.98439L50.5069 48.2084L3.39233 43.2969L7.68921 2.07294Z" fill="white"/>
</mask>
<g mask="url(#mask37_425_2)">
<mask id="mask38_425_2" style="mask-type:luminance" maskUnits="userSpaceOnUse" x="3" y="2" width="52" height="47">
<path d="M7.68921 2.07294L54.8038 6.98439L50.5069 48.2084L3.39233 43.2969L7.68921 2.07294Z" fill="white"/>
</mask>
<g mask="url(#mask38_425_2)">
<mask id="mask39_425_2" style="mask-type:luminance" maskUnits="userSpaceOnUse" x="3" y="2" width="52" height="47">
<path d="M7.68921 2.07294L54.8038 6.98439L50.5069 48.2084L3.39233 43.2969L7.68921 2.07294Z" fill="white"/>
</mask>
<g mask="url(#mask39_425_2)">
<path fill-rule="evenodd" clip-rule="evenodd" d="M41.9184 11.724L37.4444 11.8073L35.0017 7.53129L39.4757 7.44275L41.9184 11.724Z" fill="white"/>
</g>
</g>
</g>
</g>
<mask id="mask40_425_2" style="mask-type:luminance" maskUnits="userSpaceOnUse" x="22" y="6" width="9" height="8">
<path d="M22.7466 6.66669H30.7466V13.3334H22.7466V6.66669Z" fill="white"/>
</mask>
<g mask="url(#mask40_425_2)">
<mask id="mask41_425_2" style="mask-type:luminance" maskUnits="userSpaceOnUse" x="3" y="2" width="52" height="47">
<path d="M7.68921 2.07294L54.8038 6.98439L50.5069 48.2084L3.39233 43.2969L7.68921 2.07294Z" fill="white"/>
</mask>
<g mask="url(#mask41_425_2)">
<mask id="mask42_425_2" style="mask-type:luminance" maskUnits="userSpaceOnUse" x="3" y="2" width="52" height="47">
<path d="M7.68921 2.07294L54.8038 6.98439L50.5069 48.2084L3.39233 43.2969L7.68921 2.07294Z" fill="white"/>
</mask>
<g mask="url(#mask42_425_2)">
<mask id="mask43_425_2" style="mask-type:luminance" maskUnits="userSpaceOnUse" x="3" y="2" width="52" height="47">
<path d="M7.68921 2.07294L54.8038 6.98439L50.5069 48.2084L3.39233 43.2969L7.68921 2.07294Z" fill="white"/>
</mask>
<g mask="url(#mask43_425_2)">
<path fill-rule="evenodd" clip-rule="evenodd" d="M30.4601 11.9479L25.9862 12.0313L23.5435 7.75523L28.0174 7.66669L30.4601 11.9479Z" fill="white"/>
</g>
</g>
</g>
</g>
<mask id="mask44_425_2" style="mask-type:luminance" maskUnits="userSpaceOnUse" x="12" y="6" width="9" height="8">
<path d="M12.0801 6.66669H20.0801V13.3334H12.0801V6.66669Z" fill="white"/>
</mask>
<g mask="url(#mask44_425_2)">
<mask id="mask45_425_2" style="mask-type:luminance" maskUnits="userSpaceOnUse" x="3" y="2" width="52" height="47">
<path d="M7.68945 2.07294L54.804 6.98439L50.5072 48.2084L3.39258 43.2969L7.68945 2.07294Z" fill="white"/>
</mask>
<g mask="url(#mask45_425_2)">
<mask id="mask46_425_2" style="mask-type:luminance" maskUnits="userSpaceOnUse" x="3" y="2" width="52" height="47">
<path d="M7.68945 2.07294L54.804 6.98439L50.5072 48.2084L3.39258 43.2969L7.68945 2.07294Z" fill="white"/>
</mask>
<g mask="url(#mask46_425_2)">
<mask id="mask47_425_2" style="mask-type:luminance" maskUnits="userSpaceOnUse" x="3" y="2" width="52" height="47">
<path d="M7.68945 2.07294L54.804 6.98439L50.5072 48.2084L3.39258 43.2969L7.68945 2.07294Z" fill="white"/>
</mask>
<g mask="url(#mask47_425_2)">
<path fill-rule="evenodd" clip-rule="evenodd" d="M19.0019 12.1719L14.5279 12.2552L12.0852 7.97396L16.5592 7.89062L19.0019 12.1719Z" fill="white"/>
</g>
</g>
</g>
</g>
<mask id="mask48_425_2" style="mask-type:luminance" maskUnits="userSpaceOnUse" x="8" y="8" width="5" height="4">
<path d="M8.08008 8H12.0801V12H8.08008V8Z" fill="white"/>
</mask>
<g mask="url(#mask48_425_2)">
<mask id="mask49_425_2" style="mask-type:luminance" maskUnits="userSpaceOnUse" x="3" y="2" width="52" height="47">
<path d="M7.68945 2.07294L54.804 6.98439L50.5072 48.2084L3.39258 43.2969L7.68945 2.07294Z" fill="white"/>
</mask>
<g mask="url(#mask49_425_2)">
<mask id="mask50_425_2" style="mask-type:luminance" maskUnits="userSpaceOnUse" x="3" y="2" width="52" height="47">
<path d="M7.68945 2.07294L54.804 6.98439L50.5072 48.2084L3.39258 43.2969L7.68945 2.07294Z" fill="white"/>
</mask>
<g mask="url(#mask50_425_2)">
<mask id="mask51_425_2" style="mask-type:luminance" maskUnits="userSpaceOnUse" x="3" y="2" width="52" height="47">
<path d="M7.68945 2.07294L54.804 6.98439L50.5072 48.2084L3.39258 43.2969L7.68945 2.07294Z" fill="white"/>
</mask>
<g mask="url(#mask51_425_2)">
<path fill-rule="evenodd" clip-rule="evenodd" d="M10.8874 10.0417C10.8978 10.3125 10.8093 10.5469 10.6218 10.7396C10.4343 10.9375 10.2051 11.0365 9.9343 11.0417C9.65826 11.0469 9.42909 10.9584 9.23117 10.7709C9.03847 10.5834 8.93951 10.349 8.9343 10.0781C8.92909 9.81252 9.01763 9.57815 9.20513 9.38023C9.39263 9.18752 9.6218 9.08336 9.89263 9.07815C10.1635 9.07294 10.3978 9.16669 10.5905 9.35419C10.7885 9.54169 10.8874 9.77086 10.8874 10.0417Z" fill="white"/>
</g>
</g>
</g>
</g>
<mask id="mask52_425_2" style="mask-type:luminance" maskUnits="userSpaceOnUse" x="6" y="6" width="8" height="8">
<path d="M6.74658 6.66669H13.4132V13.3334H6.74658V6.66669Z" fill="white"/>
</mask>
<g mask="url(#mask52_425_2)">
<mask id="mask53_425_2" style="mask-type:luminance" maskUnits="userSpaceOnUse" x="3" y="2" width="52" height="47">
<path d="M7.68921 2.07294L54.8038 6.98439L50.5069 48.2084L3.39233 43.2969L7.68921 2.07294Z" fill="white"/>
</mask>
<g mask="url(#mask53_425_2)">
<mask id="mask54_425_2" style="mask-type:luminance" maskUnits="userSpaceOnUse" x="3" y="2" width="52" height="47">
<path d="M7.68921 2.07294L54.8038 6.98439L50.5069 48.2084L3.39233 43.2969L7.68921 2.07294Z" fill="white"/>
</mask>
<g mask="url(#mask54_425_2)">
<mask id="mask55_425_2" style="mask-type:luminance" maskUnits="userSpaceOnUse" x="3" y="2" width="52" height="47">
<path d="M7.68921 2.07294L54.8038 6.98439L50.5069 48.2084L3.39233 43.2969L7.68921 2.07294Z" fill="white"/>
</mask>
<g mask="url(#mask55_425_2)">
<path d="M10.8872 10.0417C10.8976 10.3125 10.8091 10.5469 10.6216 10.7396C10.4341 10.9375 10.2049 11.0365 9.93407 11.0417C9.65802 11.0469 9.42886 10.9583 9.23094 10.7708C9.03823 10.5833 8.93927 10.349 8.93407 10.0781C8.92886 9.8125 9.0174 9.57812 9.2049 9.38021C9.3924 9.1875 9.62157 9.08333 9.8924 9.07812C10.1632 9.07291 10.3976 9.16666 10.5903 9.35416C10.7882 9.54166 10.8872 9.77083 10.8872 10.0417Z" stroke="white" stroke-width="0.273296"/>
</g>
</g>
</g>
</g>
<mask id="mask56_425_2" style="mask-type:luminance" maskUnits="userSpaceOnUse" x="5" y="16" width="50" height="8">
<path d="M5.41333 16H54.7467V24H5.41333V16Z" fill="white"/>
</mask>
<g mask="url(#mask56_425_2)">
<mask id="mask57_425_2" style="mask-type:luminance" maskUnits="userSpaceOnUse" x="3" y="2" width="52" height="47">
<path d="M7.68945 2.07294L54.804 6.98439L50.5072 48.2084L3.39258 43.2969L7.68945 2.07294Z" fill="white"/>
</mask>
<g mask="url(#mask57_425_2)">
<mask id="mask58_425_2" style="mask-type:luminance" maskUnits="userSpaceOnUse" x="3" y="2" width="52" height="47">
<path d="M7.68945 2.07294L54.804 6.98439L50.5072 48.2084L3.39258 43.2969L7.68945 2.07294Z" fill="white"/>
</mask>
<g mask="url(#mask58_425_2)">
<mask id="mask59_425_2" style="mask-type:luminance" maskUnits="userSpaceOnUse" x="3" y="2" width="52" height="47">
<path d="M7.68945 2.07294L54.804 6.98439L50.5072 48.2084L3.39258 43.2969L7.68945 2.07294Z" fill="white"/>
</mask>
<g mask="url(#mask59_425_2)">
<path d="M6.64248 17.4949L53.1789 22.3438" stroke="#CCCCCC" stroke-width="0.0683644"/>
</g>
</g>
</g>
</g>
<mask id="mask60_425_2" style="mask-type:luminance" maskUnits="userSpaceOnUse" x="4" y="33" width="49" height="10">
<path d="M4.08008 33.3333H52.0801V42.6666H4.08008V33.3333Z" fill="white"/>
</mask>
<g mask="url(#mask60_425_2)">
<mask id="mask61_425_2" style="mask-type:luminance" maskUnits="userSpaceOnUse" x="3" y="2" width="52" height="47">
<path d="M7.68945 2.07288L54.804 6.98433L50.5072 48.2083L3.39258 43.2968L7.68945 2.07288Z" fill="white"/>
</mask>
<g mask="url(#mask61_425_2)">
<mask id="mask62_425_2" style="mask-type:luminance" maskUnits="userSpaceOnUse" x="3" y="2" width="52" height="47">
<path d="M7.68945 2.07288L54.804 6.98433L50.5072 48.2083L3.39258 43.2968L7.68945 2.07288Z" fill="white"/>
</mask>
<g mask="url(#mask62_425_2)">
<mask id="mask63_425_2" style="mask-type:luminance" maskUnits="userSpaceOnUse" x="3" y="2" width="52" height="47">
<path d="M7.68945 2.07288L54.804 6.98433L50.5072 48.2083L3.39258 43.2968L7.68945 2.07288Z" fill="white"/>
</mask>
<g mask="url(#mask63_425_2)">
<path d="M6.86132 35.5885L49.2416 40.0052" stroke="white" stroke-width="0.273297"/>
</g>
</g>
</g>
</g>
<mask id="mask64_425_2" style="mask-type:luminance" maskUnits="userSpaceOnUse" x="16" y="34" width="6" height="12">
<path d="M16.0801 34.6667H21.4134V45.3334H16.0801V34.6667Z" fill="white"/>
</mask>
<g mask="url(#mask64_425_2)">
<mask id="mask65_425_2" style="mask-type:luminance" maskUnits="userSpaceOnUse" x="3" y="2" width="52" height="47">
<path d="M7.68945 2.07294L54.804 6.98439L50.5072 48.2084L3.39258 43.2969L7.68945 2.07294Z" fill="white"/>
</mask>
<g mask="url(#mask65_425_2)">
<mask id="mask66_425_2" style="mask-type:luminance" maskUnits="userSpaceOnUse" x="3" y="2" width="52" height="47">
<path d="M7.68945 2.07294L54.804 6.98439L50.5072 48.2084L3.39258 43.2969L7.68945 2.07294Z" fill="white"/>
</mask>
<g mask="url(#mask66_425_2)">
<mask id="mask67_425_2" style="mask-type:luminance" maskUnits="userSpaceOnUse" x="3" y="2" width="52" height="47">
<path d="M7.68945 2.07294L54.804 6.98439L50.5072 48.2084L3.39258 43.2969L7.68945 2.07294Z" fill="white"/>
</mask>
<g mask="url(#mask67_425_2)">
<path d="M18.653 43.3178L19.3145 36.9532" stroke="white" stroke-width="0.273297"/>
</g>
</g>
</g>
</g>
<mask id="mask68_425_2" style="mask-type:luminance" maskUnits="userSpaceOnUse" x="33" y="36" width="6" height="12">
<path d="M33.4133 36H38.7467V48H33.4133V36Z" fill="white"/>
</mask>
<g mask="url(#mask68_425_2)">
<mask id="mask69_425_2" style="mask-type:luminance" maskUnits="userSpaceOnUse" x="3" y="2" width="52" height="47">
<path d="M7.68945 2.07294L54.804 6.98439L50.5072 48.2084L3.39258 43.2969L7.68945 2.07294Z" fill="white"/>
</mask>
<g mask="url(#mask69_425_2)">
<mask id="mask70_425_2" style="mask-type:luminance" maskUnits="userSpaceOnUse" x="3" y="2" width="52" height="47">
<path d="M7.68945 2.07294L54.804 6.98439L50.5072 48.2084L3.39258 43.2969L7.68945 2.07294Z" fill="white"/>
</mask>
<g mask="url(#mask70_425_2)">
<mask id="mask71_425_2" style="mask-type:luminance" maskUnits="userSpaceOnUse" x="3" y="2" width="52" height="47">
<path d="M7.68945 2.07294L54.804 6.98439L50.5072 48.2084L3.39258 43.2969L7.68945 2.07294Z" fill="white"/>
</mask>
<g mask="url(#mask71_425_2)">
<path d="M36.1115 45.1355L36.7729 38.7709" stroke="white" stroke-width="0.273297"/>
</g>
</g>
</g>
</g>
<mask id="mask72_425_2" style="mask-type:luminance" maskUnits="userSpaceOnUse" x="5" y="26" width="48" height="10">
<path d="M5.41333 26.6667H52.08V36H5.41333V26.6667Z" fill="white"/>
</mask>
<g mask="url(#mask72_425_2)">
<mask id="mask73_425_2" style="mask-type:luminance" maskUnits="userSpaceOnUse" x="3" y="2" width="52" height="47">
<path d="M7.68945 2.07294L54.804 6.98439L50.5072 48.2084L3.39258 43.2969L7.68945 2.07294Z" fill="white"/>
</mask>
<g mask="url(#mask73_425_2)">
<mask id="mask74_425_2" style="mask-type:luminance" maskUnits="userSpaceOnUse" x="3" y="2" width="52" height="47">
<path d="M7.68945 2.07294L54.804 6.98439L50.5072 48.2084L3.39258 43.2969L7.68945 2.07294Z" fill="white"/>
</mask>
<g mask="url(#mask74_425_2)">
<mask id="mask75_425_2" style="mask-type:luminance" maskUnits="userSpaceOnUse" x="3" y="2" width="52" height="47">
<path d="M7.68945 2.07294L54.804 6.98439L50.5072 48.2084L3.39258 43.2969L7.68945 2.07294Z" fill="white"/>
</mask>
<g mask="url(#mask75_425_2)">
<path d="M7.52264 29.2188L49.9081 33.6355" stroke="white" stroke-width="0.273297"/>
</g>
</g>
</g>
</g>
<mask id="mask76_425_2" style="mask-type:luminance" maskUnits="userSpaceOnUse" x="5" y="20" width="49" height="10">
<path d="M5.41333 20H53.4133V29.3333H5.41333V20Z" fill="white"/>
</mask>
<g mask="url(#mask76_425_2)">
<mask id="mask77_425_2" style="mask-type:luminance" maskUnits="userSpaceOnUse" x="3" y="2" width="52" height="47">
<path d="M7.68945 2.07294L54.804 6.98439L50.5072 48.2084L3.39258 43.2969L7.68945 2.07294Z" fill="white"/>
</mask>
<g mask="url(#mask77_425_2)">
<mask id="mask78_425_2" style="mask-type:luminance" maskUnits="userSpaceOnUse" x="3" y="2" width="52" height="47">
<path d="M7.68945 2.07294L54.804 6.98439L50.5072 48.2084L3.39258 43.2969L7.68945 2.07294Z" fill="white"/>
</mask>
<g mask="url(#mask78_425_2)">
<mask id="mask79_425_2" style="mask-type:luminance" maskUnits="userSpaceOnUse" x="3" y="2" width="52" height="47">
<path d="M7.68945 2.07294L54.804 6.98439L50.5072 48.2084L3.39258 43.2969L7.68945 2.07294Z" fill="white"/>
</mask>
<g mask="url(#mask79_425_2)">
<path d="M8.18945 22.8542L50.5697 27.2708" stroke="white" stroke-width="0.273297"/>
</g>
</g>
</g>
</g>
<path d="M67.6624 8.63458V4.07208H81.0999V8.63458H77.0582V28.9054H71.6832V8.63458H67.6624Z" fill="#DC3545"/>
<path d="M88.9211 18.7387V28.9054H83.5461V4.07208H93.1086C96.2753 4.07208 97.8586 5.75958 97.8586 9.13458V12.0304C97.8586 14.0721 97.1295 15.3742 95.6711 15.9262C96.9472 16.4002 97.5878 17.4471 97.5878 19.0721V28.9054H92.2128V19.5096C92.2128 18.9992 91.968 18.7387 91.4836 18.7387H88.9211ZM88.9211 7.71792V14.9679H91.7545C91.9628 14.9679 92.1347 14.895 92.2753 14.7387C92.4107 14.5877 92.4836 14.4158 92.4836 14.2179V8.48875C92.4836 8.28042 92.4107 8.10333 92.2753 7.94708C92.1347 7.79604 91.9628 7.71792 91.7545 7.71792H88.9211Z" fill="#DC3545"/>
<path d="M111.167 3.69708C114.344 3.69708 115.938 5.38458 115.938 8.75958V28.9054H110.563V20.5721H106.688V28.9054H101.313V8.75958C101.313 5.38458 102.902 3.69708 106.084 3.69708H111.167ZM106.688 16.4262H110.563V8.11375C110.563 7.90542 110.49 7.72833 110.355 7.57208C110.214 7.42104 110.042 7.34292 109.834 7.34292H107.417C107.209 7.34292 107.032 7.42104 106.897 7.57208C106.756 7.72833 106.688 7.90542 106.688 8.11375V16.4262Z" fill="#DC3545"/>
<path d="M129.175 24.8429V21.0096H134.279V24.2179C134.279 27.5929 132.696 29.2804 129.529 29.2804H124.696C121.513 29.2804 119.925 27.5929 119.925 24.2179V8.75958C119.925 5.38458 121.513 3.69708 124.696 3.69708H129.529C132.696 3.69708 134.279 5.38458 134.279 8.75958V11.0929H129.175V8.11375C129.175 7.90542 129.102 7.72833 128.966 7.57208C128.826 7.42104 128.654 7.34292 128.446 7.34292H126.029C125.821 7.34292 125.644 7.42104 125.508 7.57208C125.368 7.72833 125.3 7.90542 125.3 8.11375V24.8429C125.3 25.0408 125.368 25.2179 125.508 25.3846C125.644 25.5408 125.821 25.6137 126.029 25.6137H128.446C128.654 25.6137 128.826 25.5408 128.966 25.3846C129.102 25.2179 129.175 25.0408 129.175 24.8429Z" fill="#DC3545"/>
<path d="M152.958 4.07208L148.75 15.4679L153.771 28.9054H148.292L144.604 19.0721H142.875V28.9054H137.5V4.07208H142.875V14.4679H144.188L148.063 4.07208H152.958Z" fill="#DC3545"/>
<path d="M168.698 28.9054H163.323V8.75958C163.323 5.38458 164.911 3.69708 168.093 3.69708H170.927C172.786 3.69708 174.119 4.31167 174.927 5.53042C175.661 4.31167 176.989 3.69708 178.906 3.69708H181.739C184.916 3.69708 186.51 5.38458 186.51 8.75958V28.9054H181.135V8.30125C181.135 8.09292 181.062 7.91583 180.927 7.75958C180.786 7.60854 180.614 7.53042 180.406 7.53042H178.323C178.125 7.53042 177.953 7.60854 177.802 7.75958C177.661 7.91583 177.593 8.09292 177.593 8.30125V28.9054H172.239V8.30125C172.239 8.09292 172.161 7.91583 172.01 7.75958C171.869 7.60854 171.703 7.53042 171.51 7.53042H169.427C169.218 7.53042 169.041 7.60854 168.906 7.75958C168.765 7.91583 168.698 8.09292 168.698 8.30125V28.9054Z" fill="#DC3545"/>
<path d="M204.813 8.75958V24.2179C204.813 27.5929 203.219 29.2804 200.042 29.2804H194.959C191.776 29.2804 190.188 27.5929 190.188 24.2179V8.75958C190.188 5.38458 191.776 3.69708 194.959 3.69708H200.042C203.219 3.69708 204.813 5.38458 204.813 8.75958ZM199.438 24.8429V8.11375C199.438 7.90542 199.365 7.72833 199.229 7.57208C199.089 7.42104 198.917 7.34292 198.709 7.34292H196.292C196.084 7.34292 195.906 7.42104 195.771 7.57208C195.63 7.72833 195.563 7.90542 195.563 8.11375V24.8429C195.563 25.0408 195.63 25.2179 195.771 25.3846C195.906 25.5408 196.084 25.6137 196.292 25.6137H198.709C198.917 25.6137 199.089 25.5408 199.229 25.3846C199.365 25.2179 199.438 25.0408 199.438 24.8429Z" fill="#DC3545"/>
<path d="M218.782 4.07208H223.969L218.823 28.9054H212.636L207.49 4.07208H212.719L215.74 22.1971L218.782 4.07208Z" fill="#DC3545"/>
<path d="M231.98 4.07208V28.9054H226.605V4.07208H231.98Z" fill="#DC3545"/>
<path d="M241.343 24.4471H247.281V28.9054H235.968V4.07208H247.281V8.44708H241.343V14.2804H246.906V18.5096H241.343V24.4471Z" fill="#DC3545"/>
<path d="M264.168 10.5929H259.063V8.63458C259.063 8.44187 258.99 8.27 258.855 8.11375C258.714 7.96271 258.543 7.88458 258.334 7.88458H256.23C256.022 7.88458 255.845 7.96271 255.709 8.11375C255.569 8.27 255.501 8.44187 255.501 8.63458V13.0512C255.501 13.2596 255.569 13.4419 255.709 13.5929C255.845 13.7492 256.022 13.8221 256.23 13.8221H259.688C262.855 13.8794 264.438 15.5669 264.438 18.8846V24.2179C264.438 27.5929 262.855 29.2804 259.688 29.2804H255.168C251.985 29.2804 250.397 27.5929 250.397 24.2179V21.6554H255.501V24.4054C255.501 24.6137 255.569 24.796 255.709 24.9471C255.845 25.1033 256.022 25.1762 256.23 25.1762H258.605C258.813 25.1762 258.985 25.1033 259.126 24.9471C259.261 24.796 259.334 24.6137 259.334 24.4054V19.5512C259.334 19.3429 259.261 19.1658 259.126 19.0096C258.985 18.8585 258.813 18.7804 258.605 18.7804H255.168C251.985 18.7804 250.397 17.0929 250.397 13.7179V8.75958C250.397 5.38458 251.985 3.69708 255.168 3.69708H259.418C262.584 3.69708 264.168 5.38458 264.168 8.75958V10.5929Z" fill="#DC3545"/>
<path d="M97.1363 35.5237V42.4195C97.1363 43.9195 96.428 44.6695 95.0113 44.6695H92.7405C91.3238 44.6695 90.6155 43.9195 90.6155 42.4195V35.5237C90.6155 34.0237 91.3238 33.2737 92.7405 33.2737H95.0113C96.428 33.2737 97.1363 34.0237 97.1363 35.5237ZM94.7405 42.6903V35.232C94.7405 35.1383 94.704 35.0601 94.6363 35.0028C94.579 34.9351 94.5009 34.8987 94.4071 34.8987H93.3446C93.2457 34.8987 93.1624 34.9351 93.0946 35.0028C93.0374 35.0601 93.0113 35.1383 93.0113 35.232V42.6903C93.0113 42.7893 93.0374 42.8726 93.0946 42.9403C93.1624 42.9976 93.2457 43.0237 93.3446 43.0237H94.4071C94.5009 43.0237 94.579 42.9976 94.6363 42.9403C94.704 42.8726 94.7405 42.7893 94.7405 42.6903Z" fill="#212529"/>
<path d="M105.248 44.5028H102.852V35.3153C102.852 35.232 102.816 35.1591 102.748 35.0862C102.691 35.0185 102.612 34.982 102.519 34.982H101.602C101.503 34.982 101.42 35.0185 101.352 35.0862C101.295 35.1591 101.269 35.232 101.269 35.3153V44.5028H98.8728V35.5237C98.8728 34.0237 99.5811 33.2737 100.998 33.2737H103.123C104.539 33.2737 105.248 34.0237 105.248 35.5237V44.5028Z" fill="#212529"/>
<path d="M116.719 33.4404L114.344 40.4612V44.5029H111.948V40.4612L109.573 33.4404H111.823L113.135 38.0445L114.469 33.4404H116.719Z" fill="#212529"/>
<path d="M124.263 35.5237V42.4195C124.263 43.9195 123.554 44.6695 122.138 44.6695H119.867C118.45 44.6695 117.742 43.9195 117.742 42.4195V35.5237C117.742 34.0237 118.45 33.2737 119.867 33.2737H122.138C123.554 33.2737 124.263 34.0237 124.263 35.5237ZM121.867 42.6903V35.232C121.867 35.1383 121.83 35.0601 121.763 35.0028C121.705 34.9351 121.627 34.8987 121.534 34.8987H120.471C120.372 34.8987 120.289 34.9351 120.221 35.0028C120.164 35.0601 120.138 35.1383 120.138 35.232V42.6903C120.138 42.7893 120.164 42.8726 120.221 42.9403C120.289 42.9976 120.372 43.0237 120.471 43.0237H121.534C121.627 43.0237 121.705 42.9976 121.763 42.9403C121.83 42.8726 121.867 42.7893 121.867 42.6903Z" fill="#212529"/>
<path d="M129.979 33.4404H132.375V42.4195C132.375 43.9195 131.666 44.6695 130.25 44.6695H128.125C126.708 44.6695 126 43.9195 126 42.4195V33.4404H128.395V42.6279C128.395 42.7112 128.421 42.7893 128.479 42.857C128.546 42.93 128.63 42.9612 128.729 42.9612H129.645C129.739 42.9612 129.817 42.93 129.875 42.857C129.942 42.7893 129.979 42.7112 129.979 42.6279V33.4404Z" fill="#212529"/>
<path d="M136.404 39.9612V44.5029H134.008V33.4404H138.258C139.674 33.4404 140.383 34.1904 140.383 35.6904V36.982C140.383 37.8883 140.055 38.4716 139.404 38.732C139.987 38.93 140.279 39.3935 140.279 40.1279V44.5029H137.883V40.3154C137.883 40.081 137.768 39.9612 137.549 39.9612H136.404ZM136.404 35.0654V38.2945H137.674C137.758 38.2945 137.826 38.2633 137.883 38.1904C137.951 38.1227 137.987 38.0445 137.987 37.9612V35.3987C137.987 35.3154 137.951 35.2425 137.883 35.1695C137.826 35.1018 137.758 35.0654 137.674 35.0654H136.404Z" fill="#212529"/>
<path d="M149.465 33.4404H151.59L152.882 41.7737L153.84 33.4404H156.153L154.361 44.5029H151.653L150.528 37.7112L149.423 44.5029H146.694L144.903 33.4404H147.236L148.194 41.7737L149.465 33.4404Z" fill="#212529"/>
<path d="M161.87 33.2737C163.287 33.2737 163.995 34.0237 163.995 35.5237V44.5028H161.599V40.7945H159.87V44.5028H157.474V35.5237C157.474 34.0237 158.182 33.2737 159.599 33.2737H161.87ZM159.87 38.9403H161.599V35.232C161.599 35.1383 161.563 35.0601 161.495 35.0028C161.438 34.9351 161.36 34.8987 161.266 34.8987H160.203C160.104 34.8987 160.021 34.9351 159.953 35.0028C159.896 35.0601 159.87 35.1383 159.87 35.232V38.9403Z" fill="#212529"/>
<path d="M165.144 35.482V33.4404H171.123V35.482H169.332V44.5029H166.936V35.482H165.144Z" fill="#212529"/>
<path d="M176.343 42.6903V40.982H178.613V42.4195C178.613 43.9195 177.905 44.6695 176.488 44.6695H174.343C172.926 44.6695 172.218 43.9195 172.218 42.4195V35.5237C172.218 34.0237 172.926 33.2737 174.343 33.2737H176.488C177.905 33.2737 178.613 34.0237 178.613 35.5237V36.5653H176.343V35.232C176.343 35.1383 176.306 35.0601 176.238 35.0028C176.181 34.9351 176.103 34.8987 176.009 34.8987H174.947C174.848 34.8987 174.764 34.9351 174.697 35.0028C174.639 35.0601 174.613 35.1383 174.613 35.232V42.6903C174.613 42.7893 174.639 42.8726 174.697 42.9403C174.764 42.9976 174.848 43.0237 174.947 43.0237H176.009C176.103 43.0237 176.181 42.9976 176.238 42.9403C176.306 42.8726 176.343 42.7893 176.343 42.6903Z" fill="#212529"/>
<path d="M182.447 40.1487V44.5029H180.051V33.4404H182.447V38.0654H184.343V33.4404H186.739V44.5029H184.343V40.1487H182.447Z" fill="#212529"/>
</svg>
