<svg xmlns="http://www.w3.org/2000/svg" xmlns:xlink="http://www.w3.org/1999/xlink" width="300" zoomAndPan="magnify" viewBox="0 0 224.87999 37.5" height="50" preserveAspectRatio="xMidYMid meet" version="1.0"><defs><g/><clipPath id="9f762e1aed"><path d="M 5 5 L 10 5 L 10 13 L 5 13 Z M 5 5 " clip-rule="nonzero"/></clipPath><clipPath id="e622668143"><path d="M 5.707031 1.554688 L 41.042969 5.238281 L 37.820312 36.15625 L 2.484375 32.472656 Z M 5.707031 1.554688 " clip-rule="nonzero"/></clipPath><clipPath id="b4e816ce98"><path d="M 5.707031 1.554688 L 41.042969 5.238281 L 37.820312 36.15625 L 2.484375 32.472656 Z M 5.707031 1.554688 " clip-rule="nonzero"/></clipPath><clipPath id="f40f4d66a5"><path d="M 5.707031 1.554688 L 41.042969 5.238281 L 37.820312 36.15625 L 2.484375 32.472656 Z M 5.707031 1.554688 " clip-rule="nonzero"/></clipPath><clipPath id="50fc7314cd"><path d="M 3 11 L 40 11 L 40 37 L 3 37 Z M 3 11 " clip-rule="nonzero"/></clipPath><clipPath id="dadb4bc0eb"><path d="M 5.707031 1.554688 L 41.042969 5.238281 L 37.820312 36.15625 L 2.484375 32.472656 Z M 5.707031 1.554688 " clip-rule="nonzero"/></clipPath><clipPath id="73d513ca96"><path d="M 5.707031 1.554688 L 41.042969 5.238281 L 37.820312 36.15625 L 2.484375 32.472656 Z M 5.707031 1.554688 " clip-rule="nonzero"/></clipPath><clipPath id="b9ffc50d34"><path d="M 5.707031 1.554688 L 41.042969 5.238281 L 37.820312 36.15625 L 2.484375 32.472656 Z M 5.707031 1.554688 " clip-rule="nonzero"/></clipPath><clipPath id="5536688021"><path d="M 4 9 L 41 9 L 41 17 L 4 17 Z M 4 9 " clip-rule="nonzero"/></clipPath><clipPath id="96eda410ef"><path d="M 5.707031 1.554688 L 41.042969 5.238281 L 37.820312 36.15625 L 2.484375 32.472656 Z M 5.707031 1.554688 " clip-rule="nonzero"/></clipPath><clipPath id="f451f63a11"><path d="M 5.707031 1.554688 L 41.042969 5.238281 L 37.820312 36.15625 L 2.484375 32.472656 Z M 5.707031 1.554688 " clip-rule="nonzero"/></clipPath><clipPath id="653c323969"><path d="M 5.707031 1.554688 L 41.042969 5.238281 L 37.820312 36.15625 L 2.484375 32.472656 Z M 5.707031 1.554688 " clip-rule="nonzero"/></clipPath><clipPath id="28ef4aef59"><path d="M 8 10 L 15 10 L 15 14 L 8 14 Z M 8 10 " clip-rule="nonzero"/></clipPath><clipPath id="90bd2b5efd"><path d="M 5.707031 1.554688 L 41.042969 5.238281 L 37.820312 36.15625 L 2.484375 32.472656 Z M 5.707031 1.554688 " clip-rule="nonzero"/></clipPath><clipPath id="5c22d78c20"><path d="M 5.707031 1.554688 L 41.042969 5.238281 L 37.820312 36.15625 L 2.484375 32.472656 Z M 5.707031 1.554688 " clip-rule="nonzero"/></clipPath><clipPath id="219a0695b2"><path d="M 5.707031 1.554688 L 41.042969 5.238281 L 37.820312 36.15625 L 2.484375 32.472656 Z M 5.707031 1.554688 " clip-rule="nonzero"/></clipPath><clipPath id="919d40956c"><path d="M 17 11 L 23 11 L 23 15 L 17 15 Z M 17 11 " clip-rule="nonzero"/></clipPath><clipPath id="13ab197702"><path d="M 5.707031 1.554688 L 41.042969 5.238281 L 37.820312 36.15625 L 2.484375 32.472656 Z M 5.707031 1.554688 " clip-rule="nonzero"/></clipPath><clipPath id="8a95aca9ca"><path d="M 5.707031 1.554688 L 41.042969 5.238281 L 37.820312 36.15625 L 2.484375 32.472656 Z M 5.707031 1.554688 " clip-rule="nonzero"/></clipPath><clipPath id="d95582e798"><path d="M 5.707031 1.554688 L 41.042969 5.238281 L 37.820312 36.15625 L 2.484375 32.472656 Z M 5.707031 1.554688 " clip-rule="nonzero"/></clipPath><clipPath id="92670b2afa"><path d="M 25 12 L 32 12 L 32 16 L 25 16 Z M 25 12 " clip-rule="nonzero"/></clipPath><clipPath id="6c8a935e33"><path d="M 5.707031 1.554688 L 41.042969 5.238281 L 37.820312 36.15625 L 2.484375 32.472656 Z M 5.707031 1.554688 " clip-rule="nonzero"/></clipPath><clipPath id="9e1d9f36b4"><path d="M 5.707031 1.554688 L 41.042969 5.238281 L 37.820312 36.15625 L 2.484375 32.472656 Z M 5.707031 1.554688 " clip-rule="nonzero"/></clipPath><clipPath id="642118fc80"><path d="M 5.707031 1.554688 L 41.042969 5.238281 L 37.820312 36.15625 L 2.484375 32.472656 Z M 5.707031 1.554688 " clip-rule="nonzero"/></clipPath><clipPath id="3b34258efc"><path d="M 34 12 L 40 12 L 40 17 L 34 17 Z M 34 12 " clip-rule="nonzero"/></clipPath><clipPath id="94847ecbc9"><path d="M 5.707031 1.554688 L 41.042969 5.238281 L 37.820312 36.15625 L 2.484375 32.472656 Z M 5.707031 1.554688 " clip-rule="nonzero"/></clipPath><clipPath id="42e6b27011"><path d="M 5.707031 1.554688 L 41.042969 5.238281 L 37.820312 36.15625 L 2.484375 32.472656 Z M 5.707031 1.554688 " clip-rule="nonzero"/></clipPath><clipPath id="7f2cd9e2be"><path d="M 5.707031 1.554688 L 41.042969 5.238281 L 37.820312 36.15625 L 2.484375 32.472656 Z M 5.707031 1.554688 " clip-rule="nonzero"/></clipPath><clipPath id="3bf74677bf"><path d="M 5 5 L 41 5 L 41 10 L 5 10 Z M 5 5 " clip-rule="nonzero"/></clipPath><clipPath id="82bacc1a13"><path d="M 5.707031 1.554688 L 41.042969 5.238281 L 37.820312 36.15625 L 2.484375 32.472656 Z M 5.707031 1.554688 " clip-rule="nonzero"/></clipPath><clipPath id="868f3f6d87"><path d="M 5.707031 1.554688 L 41.042969 5.238281 L 37.820312 36.15625 L 2.484375 32.472656 Z M 5.707031 1.554688 " clip-rule="nonzero"/></clipPath><clipPath id="f24cc400eb"><path d="M 5.707031 1.554688 L 41.042969 5.238281 L 37.820312 36.15625 L 2.484375 32.472656 Z M 5.707031 1.554688 " clip-rule="nonzero"/></clipPath><clipPath id="3345aaf665"><path d="M 34 5 L 40 5 L 40 9 L 34 9 Z M 34 5 " clip-rule="nonzero"/></clipPath><clipPath id="3c367d6c62"><path d="M 5.707031 1.554688 L 41.042969 5.238281 L 37.820312 36.15625 L 2.484375 32.472656 Z M 5.707031 1.554688 " clip-rule="nonzero"/></clipPath><clipPath id="d9e6aa9dba"><path d="M 5.707031 1.554688 L 41.042969 5.238281 L 37.820312 36.15625 L 2.484375 32.472656 Z M 5.707031 1.554688 " clip-rule="nonzero"/></clipPath><clipPath id="488496e5b5"><path d="M 5.707031 1.554688 L 41.042969 5.238281 L 37.820312 36.15625 L 2.484375 32.472656 Z M 5.707031 1.554688 " clip-rule="nonzero"/></clipPath><clipPath id="2a33cc8720"><path d="M 26 5 L 32 5 L 32 9 L 26 9 Z M 26 5 " clip-rule="nonzero"/></clipPath><clipPath id="c7b3ba473a"><path d="M 5.707031 1.554688 L 41.042969 5.238281 L 37.820312 36.15625 L 2.484375 32.472656 Z M 5.707031 1.554688 " clip-rule="nonzero"/></clipPath><clipPath id="20c229b618"><path d="M 5.707031 1.554688 L 41.042969 5.238281 L 37.820312 36.15625 L 2.484375 32.472656 Z M 5.707031 1.554688 " clip-rule="nonzero"/></clipPath><clipPath id="fd7a9b8d0a"><path d="M 5.707031 1.554688 L 41.042969 5.238281 L 37.820312 36.15625 L 2.484375 32.472656 Z M 5.707031 1.554688 " clip-rule="nonzero"/></clipPath><clipPath id="909e24e760"><path d="M 17 5 L 23 5 L 23 10 L 17 10 Z M 17 5 " clip-rule="nonzero"/></clipPath><clipPath id="f9b39a2951"><path d="M 5.707031 1.554688 L 41.042969 5.238281 L 37.820312 36.15625 L 2.484375 32.472656 Z M 5.707031 1.554688 " clip-rule="nonzero"/></clipPath><clipPath id="77ac8ef9be"><path d="M 5.707031 1.554688 L 41.042969 5.238281 L 37.820312 36.15625 L 2.484375 32.472656 Z M 5.707031 1.554688 " clip-rule="nonzero"/></clipPath><clipPath id="733ce81756"><path d="M 5.707031 1.554688 L 41.042969 5.238281 L 37.820312 36.15625 L 2.484375 32.472656 Z M 5.707031 1.554688 " clip-rule="nonzero"/></clipPath><clipPath id="66ee1243f0"><path d="M 9 5 L 15 5 L 15 10 L 9 10 Z M 9 5 " clip-rule="nonzero"/></clipPath><clipPath id="ac7680c2d8"><path d="M 5.707031 1.554688 L 41.042969 5.238281 L 37.820312 36.15625 L 2.484375 32.472656 Z M 5.707031 1.554688 " clip-rule="nonzero"/></clipPath><clipPath id="a1d9e69c6c"><path d="M 5.707031 1.554688 L 41.042969 5.238281 L 37.820312 36.15625 L 2.484375 32.472656 Z M 5.707031 1.554688 " clip-rule="nonzero"/></clipPath><clipPath id="c74599c516"><path d="M 5.707031 1.554688 L 41.042969 5.238281 L 37.820312 36.15625 L 2.484375 32.472656 Z M 5.707031 1.554688 " clip-rule="nonzero"/></clipPath><clipPath id="82275a6df0"><path d="M 6 6 L 9 6 L 9 9 L 6 9 Z M 6 6 " clip-rule="nonzero"/></clipPath><clipPath id="40ee0912b3"><path d="M 5.707031 1.554688 L 41.042969 5.238281 L 37.820312 36.15625 L 2.484375 32.472656 Z M 5.707031 1.554688 " clip-rule="nonzero"/></clipPath><clipPath id="86e258d004"><path d="M 5.707031 1.554688 L 41.042969 5.238281 L 37.820312 36.15625 L 2.484375 32.472656 Z M 5.707031 1.554688 " clip-rule="nonzero"/></clipPath><clipPath id="b665e0eb81"><path d="M 5.707031 1.554688 L 41.042969 5.238281 L 37.820312 36.15625 L 2.484375 32.472656 Z M 5.707031 1.554688 " clip-rule="nonzero"/></clipPath><clipPath id="da321ce5b3"><path d="M 5 5 L 10 5 L 10 10 L 5 10 Z M 5 5 " clip-rule="nonzero"/></clipPath><clipPath id="7ff54bc724"><path d="M 5.707031 1.554688 L 41.042969 5.238281 L 37.820312 36.15625 L 2.484375 32.472656 Z M 5.707031 1.554688 " clip-rule="nonzero"/></clipPath><clipPath id="76488754fc"><path d="M 5.707031 1.554688 L 41.042969 5.238281 L 37.820312 36.15625 L 2.484375 32.472656 Z M 5.707031 1.554688 " clip-rule="nonzero"/></clipPath><clipPath id="cf19a12ce9"><path d="M 5.707031 1.554688 L 41.042969 5.238281 L 37.820312 36.15625 L 2.484375 32.472656 Z M 5.707031 1.554688 " clip-rule="nonzero"/></clipPath><clipPath id="12344f6171"><path d="M 4 12 L 41 12 L 41 18 L 4 18 Z M 4 12 " clip-rule="nonzero"/></clipPath><clipPath id="c30fec66d1"><path d="M 5.707031 1.554688 L 41.042969 5.238281 L 37.820312 36.15625 L 2.484375 32.472656 Z M 5.707031 1.554688 " clip-rule="nonzero"/></clipPath><clipPath id="a154cd9388"><path d="M 5.707031 1.554688 L 41.042969 5.238281 L 37.820312 36.15625 L 2.484375 32.472656 Z M 5.707031 1.554688 " clip-rule="nonzero"/></clipPath><clipPath id="4607337c8d"><path d="M 5.707031 1.554688 L 41.042969 5.238281 L 37.820312 36.15625 L 2.484375 32.472656 Z M 5.707031 1.554688 " clip-rule="nonzero"/></clipPath><clipPath id="e0bcac1c28"><path d="M 3 25 L 39 25 L 39 32 L 3 32 Z M 3 25 " clip-rule="nonzero"/></clipPath><clipPath id="84c123a4db"><path d="M 5.707031 1.554688 L 41.042969 5.238281 L 37.820312 36.15625 L 2.484375 32.472656 Z M 5.707031 1.554688 " clip-rule="nonzero"/></clipPath><clipPath id="fe612a02b4"><path d="M 5.707031 1.554688 L 41.042969 5.238281 L 37.820312 36.15625 L 2.484375 32.472656 Z M 5.707031 1.554688 " clip-rule="nonzero"/></clipPath><clipPath id="68b7a1b455"><path d="M 5.707031 1.554688 L 41.042969 5.238281 L 37.820312 36.15625 L 2.484375 32.472656 Z M 5.707031 1.554688 " clip-rule="nonzero"/></clipPath><clipPath id="66565fa70e"><path d="M 12 26 L 16 26 L 16 34 L 12 34 Z M 12 26 " clip-rule="nonzero"/></clipPath><clipPath id="44f2030fea"><path d="M 5.707031 1.554688 L 41.042969 5.238281 L 37.820312 36.15625 L 2.484375 32.472656 Z M 5.707031 1.554688 " clip-rule="nonzero"/></clipPath><clipPath id="0bac511e00"><path d="M 5.707031 1.554688 L 41.042969 5.238281 L 37.820312 36.15625 L 2.484375 32.472656 Z M 5.707031 1.554688 " clip-rule="nonzero"/></clipPath><clipPath id="4a7ffa7663"><path d="M 5.707031 1.554688 L 41.042969 5.238281 L 37.820312 36.15625 L 2.484375 32.472656 Z M 5.707031 1.554688 " clip-rule="nonzero"/></clipPath><clipPath id="5512cdcf2f"><path d="M 25 27 L 29 27 L 29 36 L 25 36 Z M 25 27 " clip-rule="nonzero"/></clipPath><clipPath id="8aec0a607f"><path d="M 5.707031 1.554688 L 41.042969 5.238281 L 37.820312 36.15625 L 2.484375 32.472656 Z M 5.707031 1.554688 " clip-rule="nonzero"/></clipPath><clipPath id="2ec3edb91f"><path d="M 5.707031 1.554688 L 41.042969 5.238281 L 37.820312 36.15625 L 2.484375 32.472656 Z M 5.707031 1.554688 " clip-rule="nonzero"/></clipPath><clipPath id="35ce4a55ae"><path d="M 5.707031 1.554688 L 41.042969 5.238281 L 37.820312 36.15625 L 2.484375 32.472656 Z M 5.707031 1.554688 " clip-rule="nonzero"/></clipPath><clipPath id="42c11a940e"><path d="M 4 20 L 39 20 L 39 27 L 4 27 Z M 4 20 " clip-rule="nonzero"/></clipPath><clipPath id="ef96f6dd68"><path d="M 5.707031 1.554688 L 41.042969 5.238281 L 37.820312 36.15625 L 2.484375 32.472656 Z M 5.707031 1.554688 " clip-rule="nonzero"/></clipPath><clipPath id="0f3cc5684a"><path d="M 5.707031 1.554688 L 41.042969 5.238281 L 37.820312 36.15625 L 2.484375 32.472656 Z M 5.707031 1.554688 " clip-rule="nonzero"/></clipPath><clipPath id="65cb118c08"><path d="M 5.707031 1.554688 L 41.042969 5.238281 L 37.820312 36.15625 L 2.484375 32.472656 Z M 5.707031 1.554688 " clip-rule="nonzero"/></clipPath><clipPath id="5eb3ec0e51"><path d="M 4 15 L 40 15 L 40 22 L 4 22 Z M 4 15 " clip-rule="nonzero"/></clipPath><clipPath id="b1539aa542"><path d="M 5.707031 1.554688 L 41.042969 5.238281 L 37.820312 36.15625 L 2.484375 32.472656 Z M 5.707031 1.554688 " clip-rule="nonzero"/></clipPath><clipPath id="2c7e4098c5"><path d="M 5.707031 1.554688 L 41.042969 5.238281 L 37.820312 36.15625 L 2.484375 32.472656 Z M 5.707031 1.554688 " clip-rule="nonzero"/></clipPath><clipPath id="f0d1741efd"><path d="M 5.707031 1.554688 L 41.042969 5.238281 L 37.820312 36.15625 L 2.484375 32.472656 Z M 5.707031 1.554688 " clip-rule="nonzero"/></clipPath></defs><g clip-path="url(#9f762e1aed)"><g clip-path="url(#e622668143)"><g clip-path="url(#b4e816ce98)"><g clip-path="url(#f40f4d66a5)"><path fill="#000000" d="M 5.640625 6.675781 L 5.097656 11.875 C 5.078125 12.082031 5.132812 12.273438 5.265625 12.4375 C 5.402344 12.601562 5.574219 12.695312 5.785156 12.714844 L 7.902344 12.9375 C 8.113281 12.957031 8.300781 12.902344 8.464844 12.769531 C 8.628906 12.636719 8.722656 12.464844 8.746094 12.253906 L 9.289062 7.054688 C 9.308594 6.84375 9.253906 6.65625 9.121094 6.492188 C 8.984375 6.328125 8.8125 6.234375 8.601562 6.210938 L 6.484375 5.992188 C 6.273438 5.96875 6.085938 6.023438 5.921875 6.15625 C 5.757812 6.292969 5.664062 6.464844 5.640625 6.675781 " fill-opacity="1" fill-rule="evenodd"/></g></g></g></g><g clip-path="url(#50fc7314cd)"><g clip-path="url(#dadb4bc0eb)"><g clip-path="url(#73d513ca96)"><g clip-path="url(#b9ffc50d34)"><path fill="#000000" d="M 5.886719 11.898438 L 39.140625 15.363281 C 39.320312 15.382812 39.46875 15.464844 39.585938 15.609375 C 39.699219 15.75 39.75 15.914062 39.730469 16.09375 L 37.710938 35.476562 C 37.691406 35.660156 37.609375 35.808594 37.46875 35.925781 C 37.324219 36.039062 37.164062 36.089844 36.980469 36.070312 L 3.726562 32.601562 C 3.546875 32.585938 3.398438 32.503906 3.28125 32.359375 C 3.167969 32.21875 3.117188 32.054688 3.136719 31.875 L 5.15625 12.492188 C 5.175781 12.308594 5.257812 12.160156 5.398438 12.042969 C 5.542969 11.929688 5.703125 11.878906 5.886719 11.898438 " fill-opacity="1" fill-rule="evenodd"/></g></g></g></g><g clip-path="url(#5536688021)"><g clip-path="url(#96eda410ef)"><g clip-path="url(#f451f63a11)"><g clip-path="url(#653c323969)"><path fill="#000000" d="M 5.308594 9.484375 L 40.203125 13.121094 L 39.824219 16.753906 L 4.929688 13.117188 Z M 5.308594 9.484375 " fill-opacity="1" fill-rule="evenodd"/></g></g></g></g><g clip-path="url(#28ef4aef59)"><g clip-path="url(#90bd2b5efd)"><g clip-path="url(#5c22d78c20)"><g clip-path="url(#219a0695b2)"><path fill="#ffffff" d="M 8.652344 13.300781 L 11.988281 13.648438 L 14.082031 10.601562 L 10.746094 10.253906 Z M 8.652344 13.300781 " fill-opacity="1" fill-rule="evenodd"/></g></g></g></g><g clip-path="url(#919d40956c)"><g clip-path="url(#13ab197702)"><g clip-path="url(#8a95aca9ca)"><g clip-path="url(#d95582e798)"><path fill="#ffffff" d="M 17.199219 14.191406 L 20.539062 14.539062 L 22.632812 11.492188 L 19.292969 11.144531 Z M 17.199219 14.191406 " fill-opacity="1" fill-rule="evenodd"/></g></g></g></g><g clip-path="url(#92670b2afa)"><g clip-path="url(#6c8a935e33)"><g clip-path="url(#9e1d9f36b4)"><g clip-path="url(#642118fc80)"><path fill="#ffffff" d="M 25.75 15.082031 L 29.089844 15.429688 L 31.183594 12.386719 L 27.84375 12.035156 Z M 25.75 15.082031 " fill-opacity="1" fill-rule="evenodd"/></g></g></g></g><g clip-path="url(#3b34258efc)"><g clip-path="url(#94847ecbc9)"><g clip-path="url(#42e6b27011)"><g clip-path="url(#7f2cd9e2be)"><path fill="#ffffff" d="M 34.300781 15.972656 L 37.636719 16.320312 L 39.730469 13.277344 L 36.394531 12.929688 Z M 34.300781 15.972656 " fill-opacity="1" fill-rule="evenodd"/></g></g></g></g><g clip-path="url(#3bf74677bf)"><g clip-path="url(#82bacc1a13)"><g clip-path="url(#868f3f6d87)"><g clip-path="url(#f24cc400eb)"><path fill="#000000" d="M 40.351562 5.164062 L 5.273438 5.851562 L 5.347656 9.503906 L 40.425781 8.820312 Z M 40.351562 5.164062 " fill-opacity="1" fill-rule="evenodd"/></g></g></g></g><g clip-path="url(#3345aaf665)"><g clip-path="url(#3c367d6c62)"><g clip-path="url(#d9e6aa9dba)"><g clip-path="url(#488496e5b5)"><path fill="#ffffff" d="M 39.972656 8.625 L 36.617188 8.6875 L 34.785156 5.480469 L 38.140625 5.414062 Z M 39.972656 8.625 " fill-opacity="1" fill-rule="evenodd"/></g></g></g></g><g clip-path="url(#2a33cc8720)"><g clip-path="url(#c7b3ba473a)"><g clip-path="url(#20c229b618)"><g clip-path="url(#fd7a9b8d0a)"><path fill="#ffffff" d="M 31.378906 8.792969 L 28.023438 8.855469 L 26.191406 5.648438 L 29.546875 5.582031 Z M 31.378906 8.792969 " fill-opacity="1" fill-rule="evenodd"/></g></g></g></g><g clip-path="url(#909e24e760)"><g clip-path="url(#f9b39a2951)"><g clip-path="url(#77ac8ef9be)"><g clip-path="url(#733ce81756)"><path fill="#ffffff" d="M 22.785156 8.960938 L 19.429688 9.023438 L 17.597656 5.816406 L 20.953125 5.75 Z M 22.785156 8.960938 " fill-opacity="1" fill-rule="evenodd"/></g></g></g></g><g clip-path="url(#66ee1243f0)"><g clip-path="url(#ac7680c2d8)"><g clip-path="url(#a1d9e69c6c)"><g clip-path="url(#c74599c516)"><path fill="#ffffff" d="M 14.191406 9.128906 L 10.835938 9.191406 L 9.003906 5.980469 L 12.359375 5.917969 Z M 14.191406 9.128906 " fill-opacity="1" fill-rule="evenodd"/></g></g></g></g><g clip-path="url(#82275a6df0)"><g clip-path="url(#40ee0912b3)"><g clip-path="url(#86e258d004)"><g clip-path="url(#b665e0eb81)"><path fill="#ffffff" d="M 8.105469 7.53125 C 8.113281 7.734375 8.046875 7.910156 7.90625 8.054688 C 7.765625 8.203125 7.59375 8.277344 7.390625 8.28125 C 7.183594 8.285156 7.011719 8.21875 6.863281 8.078125 C 6.71875 7.9375 6.644531 7.761719 6.640625 7.558594 C 6.636719 7.359375 6.703125 7.183594 6.84375 7.035156 C 6.984375 6.890625 7.15625 6.8125 7.359375 6.808594 C 7.5625 6.804688 7.738281 6.875 7.882812 7.015625 C 8.03125 7.15625 8.105469 7.328125 8.105469 7.53125 Z M 8.105469 7.53125 " fill-opacity="1" fill-rule="evenodd"/></g></g></g></g><g clip-path="url(#da321ce5b3)"><g clip-path="url(#7ff54bc724)"><g clip-path="url(#76488754fc)"><g clip-path="url(#cf19a12ce9)"><path stroke-linecap="butt" transform="matrix(0.0513206, -0.00100227, 0.00104293, 0.051145, 1.480484, -0.938641)" fill="none" stroke-linejoin="miter" d="M 125.674712 168.068242 C 125.746203 172.041194 124.382952 175.451398 121.586509 178.222508 C 118.788515 181.069964 115.411325 182.454926 111.453386 182.45374 C 107.419363 182.451062 104.098026 181.087584 101.262674 178.282485 C 98.503406 175.478877 97.12762 172.014997 97.132213 168.043536 C 97.135255 164.148421 98.498506 160.738217 101.2965 157.890761 C 104.092943 155.119651 107.471685 153.658343 111.429623 153.659529 C 115.387562 153.660716 118.783432 155.102031 121.5427 157.905639 C 124.378052 160.710737 125.75539 164.098272 125.674712 168.068242 Z M 125.674712 168.068242 " stroke="#ffffff" stroke-width="4" stroke-opacity="1" stroke-miterlimit="4"/></g></g></g></g><g clip-path="url(#12344f6171)"><g clip-path="url(#c30fec66d1)"><g clip-path="url(#a154cd9388)"><g clip-path="url(#4607337c8d)"><path stroke-linecap="butt" transform="matrix(0.0736005, 0.0076704, -0.00769016, 0.0737902, -1.847255, -20.335395)" fill="none" stroke-linejoin="miter" d="M 137.847685 439.071365 L 612.060098 439.06217 " stroke="#cccccc" stroke-width="0.692" stroke-opacity="1" stroke-miterlimit="4"/></g></g></g></g><g clip-path="url(#e0bcac1c28)"><g clip-path="url(#84c123a4db)"><g clip-path="url(#fe612a02b4)"><g clip-path="url(#68b7a1b455)"><path stroke-linecap="butt" transform="matrix(0.0510567, 0.00532095, -0.00530229, 0.0508776, 3.047476, -5.32393)" fill="none" stroke-linejoin="miter" d="M 104.143904 618.37045 L 726.690435 618.369633 " stroke="#ffffff" stroke-width="4" stroke-opacity="1" stroke-miterlimit="4"/></g></g></g></g><g clip-path="url(#66565fa70e)"><g clip-path="url(#44f2030fea)"><g clip-path="url(#0bac511e00)"><g clip-path="url(#4a7ffa7663)"><path stroke-linecap="butt" transform="matrix(0.0510567, 0.00532095, -0.00530229, 0.0508776, 1.986377, -5.434514)" fill="none" stroke-linejoin="miter" d="M 307.985395 713.163248 L 307.958699 619.344013 " stroke="#ffffff" stroke-width="4" stroke-opacity="1" stroke-miterlimit="4"/></g></g></g></g><g clip-path="url(#5512cdcf2f)"><g clip-path="url(#8aec0a607f)"><g clip-path="url(#2ec3edb91f)"><g clip-path="url(#35ce4a55ae)"><path stroke-linecap="butt" transform="matrix(0.0510567, 0.00532095, -0.00530229, 0.0508776, 1.986377, -5.434514)" fill="none" stroke-linejoin="miter" d="M 564.437995 713.137867 L 564.411299 619.318632 " stroke="#ffffff" stroke-width="4" stroke-opacity="1" stroke-miterlimit="4"/></g></g></g></g><g clip-path="url(#42c11a940e)"><g clip-path="url(#ef96f6dd68)"><g clip-path="url(#0f3cc5684a)"><g clip-path="url(#65cb118c08)"><path stroke-linecap="butt" transform="matrix(0.0510567, 0.00532095, -0.00530229, 0.0508776, 3.047476, -5.32393)" fill="none" stroke-linejoin="miter" d="M 104.10932 524.475263 L 726.731537 524.46653 " stroke="#ffffff" stroke-width="4" stroke-opacity="1" stroke-miterlimit="4"/></g></g></g></g><g clip-path="url(#5eb3ec0e51)"><g clip-path="url(#b1539aa542)"><g clip-path="url(#2c7e4098c5)"><g clip-path="url(#f0d1741efd)"><path stroke-linecap="butt" transform="matrix(0.0510567, 0.00532095, -0.00530229, 0.0508776, 3.047476, -5.32393)" fill="none" stroke-linejoin="miter" d="M 104.15831 430.648113 L 726.70484 430.647296 " stroke="#ffffff" stroke-width="4" stroke-opacity="1" stroke-miterlimit="4"/></g></g></g></g><g fill="#dc3545" fill-opacity="1"><g transform="translate(50.311742, 21.679073)"><g><path d="M 0.375 -15.203125 L 0.375 -18.625 L 10.453125 -18.625 L 10.453125 -15.203125 L 7.421875 -15.203125 L 7.421875 0 L 3.390625 0 L 3.390625 -15.203125 Z M 0.375 -15.203125 "/></g></g></g><g fill="#dc3545" fill-opacity="1"><g transform="translate(61.162024, 21.679073)"><g><path d="M 5.46875 -7.625 L 5.46875 0 L 1.4375 0 L 1.4375 -18.625 L 8.609375 -18.625 C 10.984375 -18.625 12.171875 -17.359375 12.171875 -14.828125 L 12.171875 -12.65625 C 12.171875 -11.125 11.625 -10.148438 10.53125 -9.734375 C 11.488281 -9.378906 11.96875 -8.59375 11.96875 -7.375 L 11.96875 0 L 7.9375 0 L 7.9375 -7.046875 C 7.9375 -7.429688 7.753906 -7.625 7.390625 -7.625 Z M 5.46875 -15.890625 L 5.46875 -10.453125 L 7.59375 -10.453125 C 7.75 -10.453125 7.878906 -10.507812 7.984375 -10.625 C 8.085938 -10.738281 8.140625 -10.867188 8.140625 -11.015625 L 8.140625 -15.3125 C 8.140625 -15.46875 8.085938 -15.601562 7.984375 -15.71875 C 7.878906 -15.832031 7.75 -15.890625 7.59375 -15.890625 Z M 5.46875 -15.890625 "/></g></g></g><g fill="#dc3545" fill-opacity="1"><g transform="translate(74.487427, 21.679073)"><g><path d="M 8.828125 -18.90625 C 11.210938 -18.90625 12.40625 -17.640625 12.40625 -15.109375 L 12.40625 0 L 8.375 0 L 8.375 -6.25 L 5.46875 -6.25 L 5.46875 0 L 1.4375 0 L 1.4375 -15.109375 C 1.4375 -17.640625 2.628906 -18.90625 5.015625 -18.90625 Z M 5.46875 -9.359375 L 8.375 -9.359375 L 8.375 -15.59375 C 8.375 -15.75 8.320312 -15.882812 8.21875 -16 C 8.113281 -16.113281 7.984375 -16.171875 7.828125 -16.171875 L 6.015625 -16.171875 C 5.859375 -16.171875 5.726562 -16.113281 5.625 -16 C 5.519531 -15.882812 5.46875 -15.75 5.46875 -15.59375 Z M 5.46875 -9.359375 "/></g></g></g><g fill="#dc3545" fill-opacity="1"><g transform="translate(88.446004, 21.679073)"><g><path d="M 8.375 -3.046875 L 8.375 -5.921875 L 12.203125 -5.921875 L 12.203125 -3.515625 C 12.203125 -0.984375 11.015625 0.28125 8.640625 0.28125 L 5.015625 0.28125 C 2.628906 0.28125 1.4375 -0.984375 1.4375 -3.515625 L 1.4375 -15.109375 C 1.4375 -17.640625 2.628906 -18.90625 5.015625 -18.90625 L 8.640625 -18.90625 C 11.015625 -18.90625 12.203125 -17.640625 12.203125 -15.109375 L 12.203125 -13.359375 L 8.375 -13.359375 L 8.375 -15.59375 C 8.375 -15.75 8.320312 -15.882812 8.21875 -16 C 8.113281 -16.113281 7.984375 -16.171875 7.828125 -16.171875 L 6.015625 -16.171875 C 5.859375 -16.171875 5.726562 -16.113281 5.625 -16 C 5.519531 -15.882812 5.46875 -15.75 5.46875 -15.59375 L 5.46875 -3.046875 C 5.46875 -2.898438 5.519531 -2.765625 5.625 -2.640625 C 5.726562 -2.523438 5.859375 -2.46875 6.015625 -2.46875 L 7.828125 -2.46875 C 7.984375 -2.46875 8.113281 -2.523438 8.21875 -2.640625 C 8.320312 -2.765625 8.375 -2.898438 8.375 -3.046875 Z M 8.375 -3.046875 "/></g></g></g><g fill="#dc3545" fill-opacity="1"><g transform="translate(101.627512, 21.679073)"><g><path d="M 13.03125 -18.625 L 9.875 -10.078125 L 13.640625 0 L 9.53125 0 L 6.765625 -7.375 L 5.46875 -7.375 L 5.46875 0 L 1.4375 0 L 1.4375 -18.625 L 5.46875 -18.625 L 5.46875 -10.828125 L 6.453125 -10.828125 L 9.359375 -18.625 Z M 13.03125 -18.625 "/></g></g></g><g fill="#dc3545" fill-opacity="1"><g transform="translate(115.211942, 21.679073)"><g/></g></g><g fill="#dc3545" fill-opacity="1"><g transform="translate(121.025622, 21.679073)"><g><path d="M 5.4375 0 L 1.40625 0 L 1.40625 -15.109375 C 1.40625 -17.640625 2.597656 -18.90625 4.984375 -18.90625 L 7.109375 -18.90625 C 8.503906 -18.90625 9.503906 -18.445312 10.109375 -17.53125 C 10.660156 -18.445312 11.65625 -18.90625 13.09375 -18.90625 L 15.21875 -18.90625 C 17.601562 -18.90625 18.796875 -17.640625 18.796875 -15.109375 L 18.796875 0 L 14.765625 0 L 14.765625 -15.453125 C 14.765625 -15.609375 14.710938 -15.742188 14.609375 -15.859375 C 14.503906 -15.972656 14.375 -16.03125 14.21875 -16.03125 L 12.65625 -16.03125 C 12.507812 -16.03125 12.378906 -15.972656 12.265625 -15.859375 C 12.160156 -15.742188 12.109375 -15.609375 12.109375 -15.453125 L 12.109375 0 L 8.09375 0 L 8.09375 -15.453125 C 8.09375 -15.609375 8.035156 -15.742188 7.921875 -15.859375 C 7.816406 -15.972656 7.691406 -16.03125 7.546875 -16.03125 L 5.984375 -16.03125 C 5.828125 -16.03125 5.695312 -15.972656 5.59375 -15.859375 C 5.488281 -15.742188 5.4375 -15.609375 5.4375 -15.453125 Z M 5.4375 0 "/></g></g></g><g fill="#dc3545" fill-opacity="1"><g transform="translate(141.143244, 21.679073)"><g><path d="M 12.40625 -15.109375 L 12.40625 -3.515625 C 12.40625 -0.984375 11.210938 0.28125 8.828125 0.28125 L 5.015625 0.28125 C 2.628906 0.28125 1.4375 -0.984375 1.4375 -3.515625 L 1.4375 -15.109375 C 1.4375 -17.640625 2.628906 -18.90625 5.015625 -18.90625 L 8.828125 -18.90625 C 11.210938 -18.90625 12.40625 -17.640625 12.40625 -15.109375 Z M 8.375 -3.046875 L 8.375 -15.59375 C 8.375 -15.75 8.320312 -15.882812 8.21875 -16 C 8.113281 -16.113281 7.984375 -16.171875 7.828125 -16.171875 L 6.015625 -16.171875 C 5.859375 -16.171875 5.726562 -16.113281 5.625 -16 C 5.519531 -15.882812 5.46875 -15.75 5.46875 -15.59375 L 5.46875 -3.046875 C 5.46875 -2.898438 5.519531 -2.765625 5.625 -2.640625 C 5.726562 -2.523438 5.859375 -2.46875 6.015625 -2.46875 L 7.828125 -2.46875 C 7.984375 -2.46875 8.113281 -2.523438 8.21875 -2.640625 C 8.320312 -2.765625 8.375 -2.898438 8.375 -3.046875 Z M 8.375 -3.046875 "/></g></g></g><g fill="#dc3545" fill-opacity="1"><g transform="translate(155.073049, 21.679073)"><g><path d="M 8.953125 -18.625 L 12.84375 -18.625 L 8.984375 0 L 4.34375 0 L 0.484375 -18.625 L 4.40625 -18.625 L 6.671875 -5.03125 Z M 8.953125 -18.625 "/></g></g></g><g fill="#dc3545" fill-opacity="1"><g transform="translate(168.456017, 21.679073)"><g><path d="M 5.46875 -18.625 L 5.46875 0 L 1.4375 0 L 1.4375 -18.625 Z M 5.46875 -18.625 "/></g></g></g><g fill="#dc3545" fill-opacity="1"><g transform="translate(175.47848, 21.679073)"><g><path d="M 5.46875 -3.34375 L 9.921875 -3.34375 L 9.921875 0 L 1.4375 0 L 1.4375 -18.625 L 9.921875 -18.625 L 9.921875 -15.34375 L 5.46875 -15.34375 L 5.46875 -10.96875 L 9.640625 -10.96875 L 9.640625 -7.796875 L 5.46875 -7.796875 Z M 5.46875 -3.34375 "/></g></g></g><g fill="#dc3545" fill-opacity="1"><g transform="translate(186.299979, 21.679073)"><g><path d="M 11.765625 -13.734375 L 7.9375 -13.734375 L 7.9375 -15.203125 C 7.9375 -15.347656 7.882812 -15.476562 7.78125 -15.59375 C 7.675781 -15.707031 7.546875 -15.765625 7.390625 -15.765625 L 5.8125 -15.765625 C 5.65625 -15.765625 5.523438 -15.707031 5.421875 -15.59375 C 5.316406 -15.476562 5.265625 -15.347656 5.265625 -15.203125 L 5.265625 -11.890625 C 5.265625 -11.734375 5.316406 -11.597656 5.421875 -11.484375 C 5.523438 -11.367188 5.65625 -11.3125 5.8125 -11.3125 L 8.40625 -11.3125 C 10.78125 -11.269531 11.96875 -10.003906 11.96875 -7.515625 L 11.96875 -3.515625 C 11.96875 -0.984375 10.78125 0.28125 8.40625 0.28125 L 5.015625 0.28125 C 2.628906 0.28125 1.4375 -0.984375 1.4375 -3.515625 L 1.4375 -5.4375 L 5.265625 -5.4375 L 5.265625 -3.375 C 5.265625 -3.21875 5.316406 -3.082031 5.421875 -2.96875 C 5.523438 -2.851562 5.65625 -2.796875 5.8125 -2.796875 L 7.59375 -2.796875 C 7.75 -2.796875 7.878906 -2.851562 7.984375 -2.96875 C 8.085938 -3.082031 8.140625 -3.21875 8.140625 -3.375 L 8.140625 -7.015625 C 8.140625 -7.171875 8.085938 -7.304688 7.984375 -7.421875 C 7.878906 -7.535156 7.75 -7.59375 7.59375 -7.59375 L 5.015625 -7.59375 C 2.628906 -7.59375 1.4375 -8.859375 1.4375 -11.390625 L 1.4375 -15.109375 C 1.4375 -17.640625 2.628906 -18.90625 5.015625 -18.90625 L 8.203125 -18.90625 C 10.578125 -18.90625 11.765625 -17.640625 11.765625 -15.109375 Z M 11.765625 -13.734375 "/></g></g></g><g fill="#ffffff" fill-opacity="1"><g transform="translate(67.260964, 33.377156)"><g><path d="M 5.53125 -6.734375 L 5.53125 -1.5625 C 5.53125 -0.4375 5 0.125 3.9375 0.125 L 2.234375 0.125 C 1.171875 0.125 0.640625 -0.4375 0.640625 -1.5625 L 0.640625 -6.734375 C 0.640625 -7.859375 1.171875 -8.421875 2.234375 -8.421875 L 3.9375 -8.421875 C 5 -8.421875 5.53125 -7.859375 5.53125 -6.734375 Z M 3.734375 -1.359375 L 3.734375 -6.953125 C 3.734375 -7.023438 3.707031 -7.082031 3.65625 -7.125 C 3.613281 -7.175781 3.554688 -7.203125 3.484375 -7.203125 L 2.6875 -7.203125 C 2.613281 -7.203125 2.550781 -7.175781 2.5 -7.125 C 2.457031 -7.082031 2.4375 -7.023438 2.4375 -6.953125 L 2.4375 -1.359375 C 2.4375 -1.285156 2.457031 -1.222656 2.5 -1.171875 C 2.550781 -1.128906 2.613281 -1.109375 2.6875 -1.109375 L 3.484375 -1.109375 C 3.554688 -1.109375 3.613281 -1.128906 3.65625 -1.171875 C 3.707031 -1.222656 3.734375 -1.285156 3.734375 -1.359375 Z M 3.734375 -1.359375 "/></g></g></g><g fill="#ffffff" fill-opacity="1"><g transform="translate(73.469624, 33.377156)"><g><path d="M 5.40625 0 L 3.609375 0 L 3.609375 -6.890625 C 3.609375 -6.953125 3.582031 -7.007812 3.53125 -7.0625 C 3.488281 -7.113281 3.429688 -7.140625 3.359375 -7.140625 L 2.671875 -7.140625 C 2.597656 -7.140625 2.535156 -7.113281 2.484375 -7.0625 C 2.441406 -7.007812 2.421875 -6.953125 2.421875 -6.890625 L 2.421875 0 L 0.625 0 L 0.625 -6.734375 C 0.625 -7.859375 1.15625 -8.421875 2.21875 -8.421875 L 3.8125 -8.421875 C 4.875 -8.421875 5.40625 -7.859375 5.40625 -6.734375 Z M 5.40625 0 "/></g></g></g><g fill="#ffffff" fill-opacity="1"><g transform="translate(79.434561, 33.377156)"><g/></g></g><g fill="#ffffff" fill-opacity="1"><g transform="translate(82.025781, 33.377156)"><g><path d="M 5.453125 -8.296875 L 3.671875 -3.03125 L 3.671875 0 L 1.875 0 L 1.875 -3.03125 L 0.09375 -8.296875 L 1.78125 -8.296875 L 2.765625 -4.84375 L 3.765625 -8.296875 Z M 5.453125 -8.296875 "/></g></g></g><g fill="#ffffff" fill-opacity="1"><g transform="translate(87.605882, 33.377156)"><g><path d="M 5.53125 -6.734375 L 5.53125 -1.5625 C 5.53125 -0.4375 5 0.125 3.9375 0.125 L 2.234375 0.125 C 1.171875 0.125 0.640625 -0.4375 0.640625 -1.5625 L 0.640625 -6.734375 C 0.640625 -7.859375 1.171875 -8.421875 2.234375 -8.421875 L 3.9375 -8.421875 C 5 -8.421875 5.53125 -7.859375 5.53125 -6.734375 Z M 3.734375 -1.359375 L 3.734375 -6.953125 C 3.734375 -7.023438 3.707031 -7.082031 3.65625 -7.125 C 3.613281 -7.175781 3.554688 -7.203125 3.484375 -7.203125 L 2.6875 -7.203125 C 2.613281 -7.203125 2.550781 -7.175781 2.5 -7.125 C 2.457031 -7.082031 2.4375 -7.023438 2.4375 -6.953125 L 2.4375 -1.359375 C 2.4375 -1.285156 2.457031 -1.222656 2.5 -1.171875 C 2.550781 -1.128906 2.613281 -1.109375 2.6875 -1.109375 L 3.484375 -1.109375 C 3.554688 -1.109375 3.613281 -1.128906 3.65625 -1.171875 C 3.707031 -1.222656 3.734375 -1.285156 3.734375 -1.359375 Z M 3.734375 -1.359375 "/></g></g></g><g fill="#ffffff" fill-opacity="1"><g transform="translate(93.814542, 33.377156)"><g><path d="M 3.609375 -8.296875 L 5.40625 -8.296875 L 5.40625 -1.5625 C 5.40625 -0.4375 4.875 0.125 3.8125 0.125 L 2.21875 0.125 C 1.15625 0.125 0.625 -0.4375 0.625 -1.5625 L 0.625 -8.296875 L 2.421875 -8.296875 L 2.421875 -1.40625 C 2.421875 -1.34375 2.441406 -1.285156 2.484375 -1.234375 C 2.535156 -1.179688 2.597656 -1.15625 2.671875 -1.15625 L 3.359375 -1.15625 C 3.429688 -1.15625 3.488281 -1.179688 3.53125 -1.234375 C 3.582031 -1.285156 3.609375 -1.34375 3.609375 -1.40625 Z M 3.609375 -8.296875 "/></g></g></g><g fill="#ffffff" fill-opacity="1"><g transform="translate(99.805134, 33.377156)"><g><path d="M 2.4375 -3.40625 L 2.4375 0 L 0.640625 0 L 0.640625 -8.296875 L 3.828125 -8.296875 C 4.890625 -8.296875 5.421875 -7.734375 5.421875 -6.609375 L 5.421875 -5.640625 C 5.421875 -4.960938 5.175781 -4.523438 4.6875 -4.328125 C 5.125 -4.179688 5.34375 -3.832031 5.34375 -3.28125 L 5.34375 0 L 3.546875 0 L 3.546875 -3.140625 C 3.546875 -3.316406 3.460938 -3.40625 3.296875 -3.40625 Z M 2.4375 -7.078125 L 2.4375 -4.65625 L 3.390625 -4.65625 C 3.453125 -4.65625 3.503906 -4.679688 3.546875 -4.734375 C 3.597656 -4.785156 3.625 -4.84375 3.625 -4.90625 L 3.625 -6.828125 C 3.625 -6.890625 3.597656 -6.945312 3.546875 -7 C 3.503906 -7.050781 3.453125 -7.078125 3.390625 -7.078125 Z M 2.4375 -7.078125 "/></g></g></g><g fill="#ffffff" fill-opacity="1"><g transform="translate(105.744409, 33.377156)"><g/></g></g><g fill="#ffffff" fill-opacity="1"><g transform="translate(108.335629, 33.377156)"><g><path d="M 3.703125 -8.296875 L 5.296875 -8.296875 L 6.265625 -2.046875 L 6.984375 -8.296875 L 8.71875 -8.296875 L 7.375 0 L 5.34375 0 L 4.5 -5.09375 L 3.671875 0 L 1.625 0 L 0.28125 -8.296875 L 2.03125 -8.296875 L 2.75 -2.046875 Z M 3.703125 -8.296875 "/></g></g></g><g fill="#ffffff" fill-opacity="1"><g transform="translate(117.404892, 33.377156)"><g><path d="M 3.9375 -8.421875 C 5 -8.421875 5.53125 -7.859375 5.53125 -6.734375 L 5.53125 0 L 3.734375 0 L 3.734375 -2.78125 L 2.4375 -2.78125 L 2.4375 0 L 0.640625 0 L 0.640625 -6.734375 C 0.640625 -7.859375 1.171875 -8.421875 2.234375 -8.421875 Z M 2.4375 -4.171875 L 3.734375 -4.171875 L 3.734375 -6.953125 C 3.734375 -7.023438 3.707031 -7.082031 3.65625 -7.125 C 3.613281 -7.175781 3.554688 -7.203125 3.484375 -7.203125 L 2.6875 -7.203125 C 2.613281 -7.203125 2.550781 -7.175781 2.5 -7.125 C 2.457031 -7.082031 2.4375 -7.023438 2.4375 -6.953125 Z M 2.4375 -4.171875 "/></g></g></g><g fill="#ffffff" fill-opacity="1"><g transform="translate(123.626379, 33.377156)"><g><path d="M 0.171875 -6.765625 L 0.171875 -8.296875 L 4.65625 -8.296875 L 4.65625 -6.765625 L 3.3125 -6.765625 L 3.3125 0 L 1.515625 0 L 1.515625 -6.765625 Z M 0.171875 -6.765625 "/></g></g></g><g fill="#ffffff" fill-opacity="1"><g transform="translate(128.462463, 33.377156)"><g><path d="M 3.734375 -1.359375 L 3.734375 -2.640625 L 5.4375 -2.640625 L 5.4375 -1.5625 C 5.4375 -0.4375 4.90625 0.125 3.84375 0.125 L 2.234375 0.125 C 1.171875 0.125 0.640625 -0.4375 0.640625 -1.5625 L 0.640625 -6.734375 C 0.640625 -7.859375 1.171875 -8.421875 2.234375 -8.421875 L 3.84375 -8.421875 C 4.90625 -8.421875 5.4375 -7.859375 5.4375 -6.734375 L 5.4375 -5.953125 L 3.734375 -5.953125 L 3.734375 -6.953125 C 3.734375 -7.023438 3.707031 -7.082031 3.65625 -7.125 C 3.613281 -7.175781 3.554688 -7.203125 3.484375 -7.203125 L 2.6875 -7.203125 C 2.613281 -7.203125 2.550781 -7.175781 2.5 -7.125 C 2.457031 -7.082031 2.4375 -7.023438 2.4375 -6.953125 L 2.4375 -1.359375 C 2.4375 -1.285156 2.457031 -1.222656 2.5 -1.171875 C 2.550781 -1.128906 2.613281 -1.109375 2.6875 -1.109375 L 3.484375 -1.109375 C 3.554688 -1.109375 3.613281 -1.128906 3.65625 -1.171875 C 3.707031 -1.222656 3.734375 -1.285156 3.734375 -1.359375 Z M 3.734375 -1.359375 "/></g></g></g><g fill="#ffffff" fill-opacity="1"><g transform="translate(134.337603, 33.377156)"><g><path d="M 2.4375 -3.265625 L 2.4375 0 L 0.640625 0 L 0.640625 -8.296875 L 2.4375 -8.296875 L 2.4375 -4.828125 L 3.859375 -4.828125 L 3.859375 -8.296875 L 5.65625 -8.296875 L 5.65625 0 L 3.859375 0 L 3.859375 -3.265625 Z M 2.4375 -3.265625 "/></g></g></g></svg>